<svg width="32" height="33" viewBox="0 0 32 33" fill="none" xmlns="http://www.w3.org/2000/svg">
<path d="M24.5194 13.4427C24.4453 13.9531 24.1087 14.6466 23.7226 15.2495C23.2354 16.0103 22.4622 16.5431 21.5774 16.7281L17.6797 17.5432C17.0533 17.6742 16.4852 18.002 16.0587 18.4788L13.503 21.3355C13.0227 21.8724 12.687 21.7443 12.687 21.0243C12.6812 21.0509 11.4186 24.307 14.7646 26.2369C16.0502 26.9785 17.9008 26.712 19.1865 25.9705L25.9983 22.0414C28.5458 20.572 30.3445 18.0862 30.9424 15.2087C30.966 15.0949 30.9843 14.9806 31.004 14.8665L24.5194 13.4427Z" fill="url(#paint0_linear_1505_569)"/>
<path d="M22.7528 9.51792C24.0384 10.2595 24.5637 11.3635 24.5637 12.8466C24.5637 13.0479 24.5479 13.2468 24.5194 13.4427L27.2641 14.6217L31.004 14.8665C31.4829 12.095 30.5444 9.2422 28.862 6.97463C27.5959 5.26819 25.9667 3.78732 24.0081 2.65756C22.417 1.73984 20.7636 1.13519 19.1025 0.803406L17.2361 3.22041L16.6465 5.99577L22.7528 9.51792Z" fill="url(#paint1_linear_1505_569)"/>
<path d="M0.783353 11.5518C0.782654 11.554 0.784588 11.5546 0.785316 11.5524C0.929339 11.1205 1.10993 10.6385 1.33539 10.1237C2.5131 7.4343 4.78262 5.64062 7.57467 4.72608C10.3667 3.81156 13.4153 4.13212 15.9599 5.59988L16.6463 5.99578L19.1023 0.803412C11.2907 -0.756764 3.30703 3.83253 0.793284 11.5217C0.792083 11.5254 0.787713 11.5382 0.783353 11.5518Z" fill="url(#paint2_linear_1505_569)"/>
<path d="M18.9196 25.9705C17.634 26.712 16.0501 26.712 14.7645 25.9705C14.59 25.8698 14.4254 25.7567 14.2699 25.6341L12.0088 27.1886L10.0601 30.3377C12.2231 32.1378 15.0319 32.7165 17.8387 32.3946C19.951 32.1524 22.0493 31.4833 24.0079 30.3535C25.599 29.4358 26.9498 28.3076 28.068 27.0362L26.906 24.2129L25.026 22.4483L18.9196 25.9705Z" fill="url(#paint3_linear_1505_569)"/>
<path d="M14.2699 25.6341C13.2794 24.8539 12.6869 23.6572 12.6869 22.3754V22.2476V11.5724C12.6869 10.9687 12.8648 10.8661 13.3881 11.1679C12.5821 10.703 10.72 9.10698 8.42093 10.4331C7.13533 11.1747 6.07666 12.8115 6.07666 14.2946V22.1528C6.07666 25.0917 7.59882 28.1572 9.79423 30.1132C9.88107 30.1906 9.97098 30.2635 10.0601 30.3377L14.2699 25.6341Z" fill="url(#paint4_linear_1505_569)"/>
<path d="M27.9102 5.81239C27.9086 5.81069 27.9071 5.81206 27.9086 5.81377C28.2111 6.15438 28.5385 6.55159 28.8721 7.00408C30.6145 9.36774 31.2656 12.3614 30.6623 15.2344C30.059 18.1073 28.2569 20.5847 25.7123 22.0524L25.0259 22.4483L28.0679 27.0362C33.3261 21.0577 33.3397 11.8555 27.9313 5.83604C27.9287 5.83316 27.9198 5.82296 27.9102 5.81239Z" fill="url(#paint5_linear_1505_569)"/>
<path d="M6.34355 14.2947C6.34354 12.8116 7.13551 11.4411 8.42113 10.6996C8.59564 10.5989 8.77601 10.5132 8.96002 10.4398L8.74304 7.70633L7.21861 4.57892C4.57671 5.55035 2.4397 7.55796 1.31528 10.1474C0.469097 12.096 9.792e-06 14.2461 0 16.5056C0 18.341 0.302549 20.0738 0.845532 21.677L3.87391 22.0833L6.34355 21.339V14.2947Z" fill="url(#paint6_linear_1505_569)"/>
<path d="M8.96016 10.4398C10.1317 9.97294 11.4653 10.0587 12.5764 10.6996L12.6872 10.7635L21.5826 15.8944C22.2066 16.2543 22.1499 16.6085 21.4446 16.756L21.9578 16.6487C22.633 16.5075 23.2499 16.1624 23.7217 15.6595C24.5328 14.795 24.8306 13.7518 24.8306 12.8466C24.8306 11.3635 24.0386 9.99305 22.753 9.25151L15.9411 5.32239C13.3936 3.85298 10.3395 3.53965 7.54622 4.46113C7.43572 4.49758 7.32756 4.53891 7.21875 4.57892L8.96016 10.4398Z" fill="url(#paint7_linear_1505_569)"/>
<path d="M19.3224 32.1524C19.3246 32.152 19.3242 32.15 19.3219 32.1504C18.8755 32.2418 18.3674 32.3265 17.8084 32.3889C14.8882 32.7146 11.9677 31.7811 9.77888 29.8226C7.59011 27.8642 6.34372 25.0663 6.34372 22.1308L6.34371 21.339L0.845703 21.677C3.39905 29.2157 11.3691 33.8286 19.2913 32.1589C19.2951 32.1581 19.3084 32.1555 19.3224 32.1524Z" fill="url(#paint8_linear_1505_569)"/>
<defs>
<linearGradient id="paint0_linear_1505_569" x1="20.0599" y1="24.2699" x2="23.2075" y2="13.3068" gradientUnits="userSpaceOnUse">
<stop stop-color="#1724C9"/>
<stop offset="1" stop-color="#1C64F2"/>
</linearGradient>
<linearGradient id="paint1_linear_1505_569" x1="27.3093" y1="10.9003" x2="19.0297" y2="2.6498" gradientUnits="userSpaceOnUse">
<stop stop-color="#1C64F2"/>
<stop offset="1" stop-color="#0092FF"/>
</linearGradient>
<linearGradient id="paint2_linear_1505_569" x1="16.1642" y1="5.52115" x2="3.67407" y2="6.3104" gradientUnits="userSpaceOnUse">
<stop stop-color="#0092FF"/>
<stop offset="1" stop-color="#45B2FF"/>
</linearGradient>
<linearGradient id="paint3_linear_1505_569" x1="15.3196" y1="29.1627" x2="26.5364" y2="26.1359" gradientUnits="userSpaceOnUse">
<stop stop-color="#1C64F2"/>
<stop offset="1" stop-color="#0092FF"/>
</linearGradient>
<linearGradient id="paint4_linear_1505_569" x1="7.26857" y1="16.1827" x2="15.2322" y2="24.4347" gradientUnits="userSpaceOnUse">
<stop stop-color="#1724C9"/>
<stop offset="1" stop-color="#1C64F2"/>
</linearGradient>
<linearGradient id="paint5_linear_1505_569" x1="25.4501" y1="22.1357" x2="31.0066" y2="10.9345" gradientUnits="userSpaceOnUse">
<stop stop-color="#0092FF"/>
<stop offset="1" stop-color="#45B2FF"/>
</linearGradient>
<linearGradient id="paint6_linear_1505_569" x1="5.36387" y1="9.63098" x2="2.39054" y2="20.8066" gradientUnits="userSpaceOnUse">
<stop stop-color="#1C64F2"/>
<stop offset="1" stop-color="#0092FF"/>
</linearGradient>
<linearGradient id="paint7_linear_1505_569" x1="20.5432" y1="9.09942" x2="9.6778" y2="11.8047" gradientUnits="userSpaceOnUse">
<stop stop-color="#1724C9"/>
<stop offset="1" stop-color="#1C64F2"/>
</linearGradient>
<linearGradient id="paint8_linear_1505_569" x1="6.40691" y1="21.8567" x2="13.3327" y2="32.2747" gradientUnits="userSpaceOnUse">
<stop stop-color="#0092FF"/>
<stop offset="1" stop-color="#45B2FF"/>
</linearGradient>
</defs>
</svg>
