<svg width="1440" height="551" viewBox="0 0 1440 551" fill="none" xmlns="http://www.w3.org/2000/svg">
<g opacity="0.3" clip-path="url(#clip0_1491_27409)">
<path fill-rule="evenodd" clip-rule="evenodd" d="M0 70.0326H48V0H47V68.5735H0V70.0326Z" fill="#2A1ADB" fill-opacity="0.1"/>
<path fill-rule="evenodd" clip-rule="evenodd" d="M48 70.0326H96V0H95V68.5735H48V70.0326Z" fill="#2A1ADB" fill-opacity="0.1"/>
<path fill-rule="evenodd" clip-rule="evenodd" d="M96 70.0326H144V0H143V68.5735H96V70.0326Z" fill="#2A1ADB" fill-opacity="0.1"/>
<path fill-rule="evenodd" clip-rule="evenodd" d="M144 70.0326H192V0H191V68.5735H144V70.0326Z" fill="#2A1ADB" fill-opacity="0.1"/>
<path fill-rule="evenodd" clip-rule="evenodd" d="M192 70.0326H240V0H239V68.5735H192V70.0326Z" fill="#2A1ADB" fill-opacity="0.1"/>
<path fill-rule="evenodd" clip-rule="evenodd" d="M240 70.0326H288V0H287V68.5735H240V70.0326Z" fill="#2A1ADB" fill-opacity="0.1"/>
<path d="M288 0H336V70.0326H288V0Z" fill="#EBEAFE"/>
<path fill-rule="evenodd" clip-rule="evenodd" d="M288 70.0326H336V0H335V68.5735H288V70.0326Z" fill="#EBEAFE"/>
<path fill-rule="evenodd" clip-rule="evenodd" d="M336 70.0326H384V0H383V68.5735H336V70.0326Z" fill="#2A1ADB" fill-opacity="0.1"/>
<path fill-rule="evenodd" clip-rule="evenodd" d="M384 70.0326H432V0H431V68.5735H384V70.0326Z" fill="#2A1ADB" fill-opacity="0.1"/>
<path fill-rule="evenodd" clip-rule="evenodd" d="M432 70.0326H480V0H479V68.5735H432V70.0326Z" fill="#2A1ADB" fill-opacity="0.1"/>
<path fill-rule="evenodd" clip-rule="evenodd" d="M480 70.0326H528V0H527V68.5735H480V70.0326Z" fill="#2A1ADB" fill-opacity="0.1"/>
<path fill-rule="evenodd" clip-rule="evenodd" d="M528 70.0326H576V0H575V68.5735H528V70.0326Z" fill="#2A1ADB" fill-opacity="0.1"/>
<path d="M576 0H624V70.0326H576V0Z" fill="#EBEAFE"/>
<path fill-rule="evenodd" clip-rule="evenodd" d="M576 70.0326H624V0H623V68.5735H576V70.0326Z" fill="#EBEAFE"/>
<path fill-rule="evenodd" clip-rule="evenodd" d="M624 70.0326H672V0H671V68.5735H624V70.0326Z" fill="#2A1ADB" fill-opacity="0.1"/>
<path fill-rule="evenodd" clip-rule="evenodd" d="M672 70.0326H720V0H719V68.5735H672V70.0326Z" fill="#2A1ADB" fill-opacity="0.1"/>
<path fill-rule="evenodd" clip-rule="evenodd" d="M720 70.0326H768V0H767V68.5735H720V70.0326Z" fill="#2A1ADB" fill-opacity="0.1"/>
<path fill-rule="evenodd" clip-rule="evenodd" d="M768 70.0326H816V0H815V68.5735H768V70.0326Z" fill="#2A1ADB" fill-opacity="0.1"/>
<path fill-rule="evenodd" clip-rule="evenodd" d="M816 70.0326H864V0H863V68.5735H816V70.0326Z" fill="#2A1ADB" fill-opacity="0.1"/>
<path fill-rule="evenodd" clip-rule="evenodd" d="M864 70.0326H912V0H911V68.5735H864V70.0326Z" fill="#2A1ADB" fill-opacity="0.1"/>
<path fill-rule="evenodd" clip-rule="evenodd" d="M912 70.0326H960V0H959V68.5735H912V70.0326Z" fill="#2A1ADB" fill-opacity="0.1"/>
<path fill-rule="evenodd" clip-rule="evenodd" d="M960 70.0326H1008V0H1007V68.5735H960V70.0326Z" fill="#2A1ADB" fill-opacity="0.1"/>
<path fill-rule="evenodd" clip-rule="evenodd" d="M1008 70.0326H1056V0H1055V68.5735H1008V70.0326Z" fill="#2A1ADB" fill-opacity="0.1"/>
<path d="M1056 0H1104V70.0326H1056V0Z" fill="#EBEAFE"/>
<path fill-rule="evenodd" clip-rule="evenodd" d="M1056 70.0326H1104V0H1103V68.5735H1056V70.0326Z" fill="#EBEAFE"/>
<path fill-rule="evenodd" clip-rule="evenodd" d="M1104 70.0326H1152V0H1151V68.5735H1104V70.0326Z" fill="#2A1ADB" fill-opacity="0.1"/>
<path fill-rule="evenodd" clip-rule="evenodd" d="M1152 70.0326H1200V0H1199V68.5735H1152V70.0326Z" fill="#2A1ADB" fill-opacity="0.1"/>
<path fill-rule="evenodd" clip-rule="evenodd" d="M1200 70.0326H1248V0H1247V68.5735H1200V70.0326Z" fill="#2A1ADB" fill-opacity="0.1"/>
<path fill-rule="evenodd" clip-rule="evenodd" d="M1248 70.0326H1296V0H1295V68.5735H1248V70.0326Z" fill="#2A1ADB" fill-opacity="0.1"/>
<path fill-rule="evenodd" clip-rule="evenodd" d="M1296 70.0326H1344V0H1343V68.5735H1296V70.0326Z" fill="#2A1ADB" fill-opacity="0.1"/>
<path fill-rule="evenodd" clip-rule="evenodd" d="M1344 70.0326H1392V0H1391V68.5735H1344V70.0326Z" fill="#2A1ADB" fill-opacity="0.1"/>
<path fill-rule="evenodd" clip-rule="evenodd" d="M1392 70.0326H1440V0H1439V68.5735H1392V70.0326Z" fill="#2A1ADB" fill-opacity="0.1"/>
<path fill-rule="evenodd" clip-rule="evenodd" d="M0 140.065H48V70.0326L47 70.0326V138.606H0V140.065Z" fill="#2A1ADB" fill-opacity="0.1"/>
<path fill-rule="evenodd" clip-rule="evenodd" d="M48 140.065H96V70.0326L95 70.0326V138.606H48V140.065Z" fill="#2A1ADB" fill-opacity="0.1"/>
<path fill-rule="evenodd" clip-rule="evenodd" d="M96 140.065H144V70.0326L143 70.0326V138.606H96V140.065Z" fill="#2A1ADB" fill-opacity="0.1"/>
<path fill-rule="evenodd" clip-rule="evenodd" d="M144 140.065H192V70.0326L191 70.0326V138.606H144V140.065Z" fill="#2A1ADB" fill-opacity="0.1"/>
<path d="M192 70.0326H240V140.065H192V70.0326Z" fill="#EBEAFE"/>
<path fill-rule="evenodd" clip-rule="evenodd" d="M192 140.065H240V70.0326L239 70.0326V138.606H192V140.065Z" fill="#EBEAFE"/>
<path fill-rule="evenodd" clip-rule="evenodd" d="M240 140.065H288V70.0326L287 70.0326V138.606H240V140.065Z" fill="#2A1ADB" fill-opacity="0.1"/>
<path fill-rule="evenodd" clip-rule="evenodd" d="M288 140.065H336V70.0326L335 70.0326V138.606H288V140.065Z" fill="#2A1ADB" fill-opacity="0.1"/>
<path fill-rule="evenodd" clip-rule="evenodd" d="M336 140.065H384V70.0326L383 70.0326V138.606H336V140.065Z" fill="#2A1ADB" fill-opacity="0.1"/>
<path d="M384 70.0326H432V140.065H384V70.0326Z" fill="#EBEAFE"/>
<path fill-rule="evenodd" clip-rule="evenodd" d="M384 140.065H432V70.0326L431 70.0326V138.606H384V140.065Z" fill="#EBEAFE"/>
<path fill-rule="evenodd" clip-rule="evenodd" d="M432 140.065H480V70.0326L479 70.0326V138.606H432V140.065Z" fill="#2A1ADB" fill-opacity="0.1"/>
<path fill-rule="evenodd" clip-rule="evenodd" d="M480 140.065H528V70.0326L527 70.0326V138.606H480V140.065Z" fill="#2A1ADB" fill-opacity="0.1"/>
<path fill-rule="evenodd" clip-rule="evenodd" d="M528 140.065H576V70.0326L575 70.0326V138.606H528V140.065Z" fill="#2A1ADB" fill-opacity="0.1"/>
<path fill-rule="evenodd" clip-rule="evenodd" d="M576 140.065H624V70.0326L623 70.0326V138.606H576V140.065Z" fill="#2A1ADB" fill-opacity="0.1"/>
<path fill-rule="evenodd" clip-rule="evenodd" d="M624 140.065H672V70.0326L671 70.0326V138.606H624V140.065Z" fill="#2A1ADB" fill-opacity="0.1"/>
<path fill-rule="evenodd" clip-rule="evenodd" d="M672 140.065H720V70.0326L719 70.0326V138.606H672V140.065Z" fill="#2A1ADB" fill-opacity="0.1"/>
<path fill-rule="evenodd" clip-rule="evenodd" d="M720 140.065H768V70.0326L767 70.0326V138.606H720V140.065Z" fill="#2A1ADB" fill-opacity="0.1"/>
<path fill-rule="evenodd" clip-rule="evenodd" d="M768 140.065H816V70.0326L815 70.0326V138.606H768V140.065Z" fill="#2A1ADB" fill-opacity="0.1"/>
<path d="M816 70.0326H864V140.065H816V70.0326Z" fill="#EBEAFE"/>
<path fill-rule="evenodd" clip-rule="evenodd" d="M816 140.065H864V70.0326L863 70.0326V138.606H816V140.065Z" fill="#EBEAFE"/>
<path fill-rule="evenodd" clip-rule="evenodd" d="M864 140.065H912V70.0326L911 70.0326V138.606H864V140.065Z" fill="#2A1ADB" fill-opacity="0.1"/>
<path fill-rule="evenodd" clip-rule="evenodd" d="M912 140.065H960V70.0326L959 70.0326V138.606H912V140.065Z" fill="#2A1ADB" fill-opacity="0.1"/>
<path fill-rule="evenodd" clip-rule="evenodd" d="M960 140.065H1008V70.0326L1007 70.0326V138.606H960V140.065Z" fill="#2A1ADB" fill-opacity="0.1"/>
<path fill-rule="evenodd" clip-rule="evenodd" d="M1008 140.065H1056V70.0326L1055 70.0326V138.606H1008V140.065Z" fill="#2A1ADB" fill-opacity="0.1"/>
<path fill-rule="evenodd" clip-rule="evenodd" d="M1056 140.065H1104V70.0326L1103 70.0326V138.606H1056V140.065Z" fill="#2A1ADB" fill-opacity="0.1"/>
<path fill-rule="evenodd" clip-rule="evenodd" d="M1104 140.065H1152V70.0326L1151 70.0326V138.606H1104V140.065Z" fill="#2A1ADB" fill-opacity="0.1"/>
<path fill-rule="evenodd" clip-rule="evenodd" d="M1152 140.065H1200V70.0326L1199 70.0326V138.606H1152V140.065Z" fill="#2A1ADB" fill-opacity="0.1"/>
<path fill-rule="evenodd" clip-rule="evenodd" d="M1200 140.065H1248V70.0326L1247 70.0326V138.606H1200V140.065Z" fill="#2A1ADB" fill-opacity="0.1"/>
<path fill-rule="evenodd" clip-rule="evenodd" d="M1248 140.065H1296V70.0326L1295 70.0326V138.606H1248V140.065Z" fill="#2A1ADB" fill-opacity="0.1"/>
<path fill-rule="evenodd" clip-rule="evenodd" d="M1296 140.065H1344V70.0326L1343 70.0326V138.606H1296V140.065Z" fill="#2A1ADB" fill-opacity="0.1"/>
<path d="M1344 70.0326H1392V140.065H1344V70.0326Z" fill="#EBEAFE"/>
<path fill-rule="evenodd" clip-rule="evenodd" d="M1344 140.065H1392V70.0326L1391 70.0326V138.606H1344V140.065Z" fill="#EBEAFE"/>
<path fill-rule="evenodd" clip-rule="evenodd" d="M1392 140.065H1440V70.0326L1439 70.0326V138.606H1392V140.065Z" fill="#2A1ADB" fill-opacity="0.1"/>
<path fill-rule="evenodd" clip-rule="evenodd" d="M0 200.837H48V140.065H47V199.571H0V200.837Z" fill="#2A1ADB" fill-opacity="0.1"/>
<path d="M48 140.065H96V200.837H48V140.065Z" fill="#EBEAFE"/>
<path fill-rule="evenodd" clip-rule="evenodd" d="M48 200.837H96V140.065H95V199.571H48V200.837Z" fill="#EBEAFE"/>
<path fill-rule="evenodd" clip-rule="evenodd" d="M96 200.837H144V140.065H143V199.571H96V200.837Z" fill="#2A1ADB" fill-opacity="0.1"/>
<path fill-rule="evenodd" clip-rule="evenodd" d="M144 200.837H192V140.065H191V199.571H144V200.837Z" fill="#2A1ADB" fill-opacity="0.1"/>
<path fill-rule="evenodd" clip-rule="evenodd" d="M192 200.837H240V140.065H239V199.571H192V200.837Z" fill="#2A1ADB" fill-opacity="0.1"/>
<path fill-rule="evenodd" clip-rule="evenodd" d="M240 200.837H288V140.065H287V199.571H240V200.837Z" fill="#2A1ADB" fill-opacity="0.1"/>
<path fill-rule="evenodd" clip-rule="evenodd" d="M288 200.837H336V140.065H335V199.571H288V200.837Z" fill="#2A1ADB" fill-opacity="0.1"/>
<path fill-rule="evenodd" clip-rule="evenodd" d="M336 200.837H384V140.065H383V199.571H336V200.837Z" fill="#2A1ADB" fill-opacity="0.1"/>
<path fill-rule="evenodd" clip-rule="evenodd" d="M384 200.837H432V140.065H431V199.571H384V200.837Z" fill="#2A1ADB" fill-opacity="0.1"/>
<path fill-rule="evenodd" clip-rule="evenodd" d="M432 200.837H480V140.065H479V199.571H432V200.837Z" fill="#2A1ADB" fill-opacity="0.1"/>
<path fill-rule="evenodd" clip-rule="evenodd" d="M480 200.837H528V140.065H527V199.571H480V200.837Z" fill="#2A1ADB" fill-opacity="0.1"/>
<path fill-rule="evenodd" clip-rule="evenodd" d="M528 200.837H576V140.065H575V199.571H528V200.837Z" fill="#2A1ADB" fill-opacity="0.1"/>
<path fill-rule="evenodd" clip-rule="evenodd" d="M576 200.837H624V140.065H623V199.571H576V200.837Z" fill="#2A1ADB" fill-opacity="0.1"/>
<path d="M624 140.065H672V200.837H624V140.065Z" fill="#EBEAFE"/>
<path fill-rule="evenodd" clip-rule="evenodd" d="M624 200.837H672V140.065H671V199.571H624V200.837Z" fill="#EBEAFE"/>
<path fill-rule="evenodd" clip-rule="evenodd" d="M672 200.837H720V140.065H719V199.571H672V200.837Z" fill="#2A1ADB" fill-opacity="0.1"/>
<path fill-rule="evenodd" clip-rule="evenodd" d="M720 200.837H768V140.065H767V199.571H720V200.837Z" fill="#2A1ADB" fill-opacity="0.1"/>
<path fill-rule="evenodd" clip-rule="evenodd" d="M768 200.837H816V140.065H815V199.571H768V200.837Z" fill="#2A1ADB" fill-opacity="0.1"/>
<path fill-rule="evenodd" clip-rule="evenodd" d="M816 200.837H864V140.065H863V199.571H816V200.837Z" fill="#2A1ADB" fill-opacity="0.1"/>
<path fill-rule="evenodd" clip-rule="evenodd" d="M864 200.837H912V140.065H911V199.571H864V200.837Z" fill="#2A1ADB" fill-opacity="0.1"/>
<path fill-rule="evenodd" clip-rule="evenodd" d="M912 200.837H960V140.065H959V199.571H912V200.837Z" fill="#2A1ADB" fill-opacity="0.1"/>
<path fill-rule="evenodd" clip-rule="evenodd" d="M960 200.837H1008V140.065H1007V199.571H960V200.837Z" fill="#2A1ADB" fill-opacity="0.1"/>
<path fill-rule="evenodd" clip-rule="evenodd" d="M1008 200.837H1056V140.065H1055V199.571H1008V200.837Z" fill="#2A1ADB" fill-opacity="0.1"/>
<path d="M1056 140.065H1104V200.837H1056V140.065Z" fill="#EBEAFE"/>
<path fill-rule="evenodd" clip-rule="evenodd" d="M1056 200.837H1104V140.065H1103V199.571H1056V200.837Z" fill="#EBEAFE"/>
<path fill-rule="evenodd" clip-rule="evenodd" d="M1104 200.837H1152V140.065H1151V199.571H1104V200.837Z" fill="#2A1ADB" fill-opacity="0.1"/>
<path fill-rule="evenodd" clip-rule="evenodd" d="M1152 200.837H1200V140.065H1199V199.571H1152V200.837Z" fill="#2A1ADB" fill-opacity="0.1"/>
<path fill-rule="evenodd" clip-rule="evenodd" d="M1200 200.837H1248V140.065H1247V199.571H1200V200.837Z" fill="#2A1ADB" fill-opacity="0.1"/>
<path fill-rule="evenodd" clip-rule="evenodd" d="M1248 200.837H1296V140.065H1295V199.571H1248V200.837Z" fill="#2A1ADB" fill-opacity="0.1"/>
<path fill-rule="evenodd" clip-rule="evenodd" d="M1296 200.837H1344V140.065H1343V199.571H1296V200.837Z" fill="#2A1ADB" fill-opacity="0.1"/>
<path fill-rule="evenodd" clip-rule="evenodd" d="M1344 200.837H1392V140.065H1391V199.571H1344V200.837Z" fill="#2A1ADB" fill-opacity="0.1"/>
<path fill-rule="evenodd" clip-rule="evenodd" d="M1392 200.837H1440V140.065H1439V199.571H1392V200.837Z" fill="#2A1ADB" fill-opacity="0.1"/>
<path fill-rule="evenodd" clip-rule="evenodd" d="M0 270.87H48V200.837H47V269.411H0V270.87Z" fill="#2A1ADB" fill-opacity="0.1"/>
<path fill-rule="evenodd" clip-rule="evenodd" d="M48 270.87H96V200.837H95V269.411H48V270.87Z" fill="#2A1ADB" fill-opacity="0.1"/>
<path fill-rule="evenodd" clip-rule="evenodd" d="M96 270.87H144V200.837H143V269.411H96V270.87Z" fill="#2A1ADB" fill-opacity="0.1"/>
<path d="M144 200.837H192V270.87H144V200.837Z" fill="#EBEAFE"/>
<path fill-rule="evenodd" clip-rule="evenodd" d="M144 270.87H192V200.837H191V269.411H144V270.87Z" fill="#EBEAFE"/>
<path fill-rule="evenodd" clip-rule="evenodd" d="M192 270.87H240V200.837H239V269.411H192V270.87Z" fill="#2A1ADB" fill-opacity="0.1"/>
<path fill-rule="evenodd" clip-rule="evenodd" d="M240 270.87H288V200.837H287V269.411H240V270.87Z" fill="#2A1ADB" fill-opacity="0.1"/>
<path fill-rule="evenodd" clip-rule="evenodd" d="M288 270.87H336V200.837H335V269.411H288V270.87Z" fill="#2A1ADB" fill-opacity="0.1"/>
<path fill-rule="evenodd" clip-rule="evenodd" d="M336 270.87H384V200.837H383V269.411H336V270.87Z" fill="#2A1ADB" fill-opacity="0.1"/>
<path fill-rule="evenodd" clip-rule="evenodd" d="M384 270.87H432V200.837H431V269.411H384V270.87Z" fill="#2A1ADB" fill-opacity="0.1"/>
<path fill-rule="evenodd" clip-rule="evenodd" d="M432 270.87H480V200.837H479V269.411H432V270.87Z" fill="#2A1ADB" fill-opacity="0.1"/>
<path fill-rule="evenodd" clip-rule="evenodd" d="M480 270.87H528V200.837H527V269.411H480V270.87Z" fill="#2A1ADB" fill-opacity="0.1"/>
<path d="M528 200.837H576V270.87H528V200.837Z" fill="#EBEAFE"/>
<path fill-rule="evenodd" clip-rule="evenodd" d="M528 270.87H576V200.837H575V269.411H528V270.87Z" fill="#EBEAFE"/>
<path fill-rule="evenodd" clip-rule="evenodd" d="M576 270.87H624V200.837H623V269.411H576V270.87Z" fill="#2A1ADB" fill-opacity="0.1"/>
<path fill-rule="evenodd" clip-rule="evenodd" d="M624 270.87H672V200.837H671V269.411H624V270.87Z" fill="#2A1ADB" fill-opacity="0.1"/>
<path fill-rule="evenodd" clip-rule="evenodd" d="M672 270.87H720V200.837H719V269.411H672V270.87Z" fill="#2A1ADB" fill-opacity="0.1"/>
<path fill-rule="evenodd" clip-rule="evenodd" d="M720 270.87H768V200.837H767V269.411H720V270.87Z" fill="#2A1ADB" fill-opacity="0.1"/>
<path fill-rule="evenodd" clip-rule="evenodd" d="M768 270.87H816V200.837H815V269.411H768V270.87Z" fill="#2A1ADB" fill-opacity="0.1"/>
<path fill-rule="evenodd" clip-rule="evenodd" d="M816 270.87H864V200.837H863V269.411H816V270.87Z" fill="#2A1ADB" fill-opacity="0.1"/>
<path fill-rule="evenodd" clip-rule="evenodd" d="M864 270.87H912V200.837H911V269.411H864V270.87Z" fill="#2A1ADB" fill-opacity="0.1"/>
<path fill-rule="evenodd" clip-rule="evenodd" d="M912 270.87H960V200.837H959V269.411H912V270.87Z" fill="#2A1ADB" fill-opacity="0.1"/>
<path fill-rule="evenodd" clip-rule="evenodd" d="M960 270.87H1008V200.837H1007V269.411H960V270.87Z" fill="#2A1ADB" fill-opacity="0.1"/>
<path d="M1008 200.837H1056V270.87H1008V200.837Z" fill="#EBEAFE"/>
<path fill-rule="evenodd" clip-rule="evenodd" d="M1008 270.87H1056V200.837H1055V269.411H1008V270.87Z" fill="#EBEAFE"/>
<path fill-rule="evenodd" clip-rule="evenodd" d="M1056 270.87H1104V200.837H1103V269.411H1056V270.87Z" fill="#2A1ADB" fill-opacity="0.1"/>
<path fill-rule="evenodd" clip-rule="evenodd" d="M1104 270.87H1152V200.837H1151V269.411H1104V270.87Z" fill="#2A1ADB" fill-opacity="0.1"/>
<path fill-rule="evenodd" clip-rule="evenodd" d="M1152 270.87H1200V200.837H1199V269.411H1152V270.87Z" fill="#2A1ADB" fill-opacity="0.1"/>
<path fill-rule="evenodd" clip-rule="evenodd" d="M1200 270.87H1248V200.837H1247V269.411H1200V270.87Z" fill="#2A1ADB" fill-opacity="0.1"/>
<path fill-rule="evenodd" clip-rule="evenodd" d="M1248 270.87H1296V200.837H1295V269.411H1248V270.87Z" fill="#2A1ADB" fill-opacity="0.1"/>
<path fill-rule="evenodd" clip-rule="evenodd" d="M1296 270.87H1344V200.837H1343V269.411H1296V270.87Z" fill="#2A1ADB" fill-opacity="0.1"/>
<path fill-rule="evenodd" clip-rule="evenodd" d="M1344 270.87H1392V200.837H1391V269.411H1344V270.87Z" fill="#2A1ADB" fill-opacity="0.1"/>
<path fill-rule="evenodd" clip-rule="evenodd" d="M1392 270.87H1440V200.837H1439V269.411H1392V270.87Z" fill="#2A1ADB" fill-opacity="0.1"/>
<path fill-rule="evenodd" clip-rule="evenodd" d="M0 340.902H48V270.87H47V339.443H0V340.902Z" fill="#2A1ADB" fill-opacity="0.1"/>
<path fill-rule="evenodd" clip-rule="evenodd" d="M48 340.902H96V270.87H95V339.443H48V340.902Z" fill="#2A1ADB" fill-opacity="0.1"/>
<path fill-rule="evenodd" clip-rule="evenodd" d="M96 340.902H144V270.87H143V339.443H96V340.902Z" fill="#2A1ADB" fill-opacity="0.1"/>
<path fill-rule="evenodd" clip-rule="evenodd" d="M144 340.902H192V270.87H191V339.443H144V340.902Z" fill="#2A1ADB" fill-opacity="0.1"/>
<path fill-rule="evenodd" clip-rule="evenodd" d="M192 340.902H240V270.87H239V339.443H192V340.902Z" fill="#2A1ADB" fill-opacity="0.1"/>
<path fill-rule="evenodd" clip-rule="evenodd" d="M240 340.902H288V270.87H287V339.443H240V340.902Z" fill="#2A1ADB" fill-opacity="0.1"/>
<path fill-rule="evenodd" clip-rule="evenodd" d="M288 340.902H336V270.87H335V339.443H288V340.902Z" fill="#2A1ADB" fill-opacity="0.1"/>
<path fill-rule="evenodd" clip-rule="evenodd" d="M336 340.902H384V270.87H383V339.443H336V340.902Z" fill="#2A1ADB" fill-opacity="0.1"/>
<path fill-rule="evenodd" clip-rule="evenodd" d="M384 340.902H432V270.87H431V339.443H384V340.902Z" fill="#2A1ADB" fill-opacity="0.1"/>
<path d="M432 270.87H480V340.902H432V270.87Z" fill="#EBEAFE"/>
<path fill-rule="evenodd" clip-rule="evenodd" d="M432 340.902H480V270.87H479V339.443H432V340.902Z" fill="#EBEAFE"/>
<path fill-rule="evenodd" clip-rule="evenodd" d="M480 340.902H528V270.87H527V339.443H480V340.902Z" fill="#2A1ADB" fill-opacity="0.1"/>
<path fill-rule="evenodd" clip-rule="evenodd" d="M528 340.902H576V270.87H575V339.443H528V340.902Z" fill="#2A1ADB" fill-opacity="0.1"/>
<path fill-rule="evenodd" clip-rule="evenodd" d="M576 340.902H624V270.87H623V339.443H576V340.902Z" fill="#2A1ADB" fill-opacity="0.1"/>
<path fill-rule="evenodd" clip-rule="evenodd" d="M624 340.902H672V270.87H671V339.443H624V340.902Z" fill="#2A1ADB" fill-opacity="0.1"/>
<path fill-rule="evenodd" clip-rule="evenodd" d="M672 340.902H720V270.87H719V339.443H672V340.902Z" fill="#2A1ADB" fill-opacity="0.1"/>
<path fill-rule="evenodd" clip-rule="evenodd" d="M720 340.902H768V270.87H767V339.443H720V340.902Z" fill="#2A1ADB" fill-opacity="0.1"/>
<path fill-rule="evenodd" clip-rule="evenodd" d="M768 340.902H816V270.87H815V339.443H768V340.902Z" fill="#2A1ADB" fill-opacity="0.1"/>
<path fill-rule="evenodd" clip-rule="evenodd" d="M816 340.902H864V270.87H863V339.443H816V340.902Z" fill="#2A1ADB" fill-opacity="0.1"/>
<path fill-rule="evenodd" clip-rule="evenodd" d="M864 340.902H912V270.87H911V339.443H864V340.902Z" fill="#2A1ADB" fill-opacity="0.1"/>
<path fill-rule="evenodd" clip-rule="evenodd" d="M912 340.902H960V270.87H959V339.443H912V340.902Z" fill="#2A1ADB" fill-opacity="0.1"/>
<path fill-rule="evenodd" clip-rule="evenodd" d="M960 340.902H1008V270.87H1007V339.443H960V340.902Z" fill="#2A1ADB" fill-opacity="0.1"/>
<path fill-rule="evenodd" clip-rule="evenodd" d="M1008 340.902H1056V270.87H1055V339.443H1008V340.902Z" fill="#2A1ADB" fill-opacity="0.1"/>
<path fill-rule="evenodd" clip-rule="evenodd" d="M1056 340.902H1104V270.87H1103V339.443H1056V340.902Z" fill="#2A1ADB" fill-opacity="0.1"/>
<path d="M1104 270.87H1152V340.902H1104V270.87Z" fill="#EBEAFE"/>
<path fill-rule="evenodd" clip-rule="evenodd" d="M1104 340.902H1152V270.87H1151V339.443H1104V340.902Z" fill="#EBEAFE"/>
<path fill-rule="evenodd" clip-rule="evenodd" d="M1152 340.902H1200V270.87H1199V339.443H1152V340.902Z" fill="#2A1ADB" fill-opacity="0.1"/>
<path fill-rule="evenodd" clip-rule="evenodd" d="M1200 340.902H1248V270.87H1247V339.443H1200V340.902Z" fill="#2A1ADB" fill-opacity="0.1"/>
<path fill-rule="evenodd" clip-rule="evenodd" d="M1248 340.902H1296V270.87H1295V339.443H1248V340.902Z" fill="#2A1ADB" fill-opacity="0.1"/>
<path fill-rule="evenodd" clip-rule="evenodd" d="M1296 340.902H1344V270.87H1343V339.443H1296V340.902Z" fill="#2A1ADB" fill-opacity="0.1"/>
<path fill-rule="evenodd" clip-rule="evenodd" d="M1344 340.902H1392V270.87H1391V339.443H1344V340.902Z" fill="#2A1ADB" fill-opacity="0.1"/>
<path fill-rule="evenodd" clip-rule="evenodd" d="M1392 340.902H1440V270.87H1439V339.443H1392V340.902Z" fill="#2A1ADB" fill-opacity="0.1"/>
<path fill-rule="evenodd" clip-rule="evenodd" d="M0 410.935H48V340.902H47V409.476H0V410.935Z" fill="#2A1ADB" fill-opacity="0.1"/>
<path fill-rule="evenodd" clip-rule="evenodd" d="M48 410.935H96V340.902H95V409.476H48V410.935Z" fill="#2A1ADB" fill-opacity="0.1"/>
<path fill-rule="evenodd" clip-rule="evenodd" d="M96 410.935H144V340.902H143V409.476H96V410.935Z" fill="#2A1ADB" fill-opacity="0.1"/>
<path fill-rule="evenodd" clip-rule="evenodd" d="M144 410.935H192V340.902H191V409.476H144V410.935Z" fill="#2A1ADB" fill-opacity="0.1"/>
<path d="M192 340.902H240V410.935H192V340.902Z" fill="#EBEAFE"/>
<path fill-rule="evenodd" clip-rule="evenodd" d="M192 410.935H240V340.902H239V409.476H192V410.935Z" fill="#EBEAFE"/>
<path fill-rule="evenodd" clip-rule="evenodd" d="M240 410.935H288V340.902H287V409.476H240V410.935Z" fill="#2A1ADB" fill-opacity="0.1"/>
<path fill-rule="evenodd" clip-rule="evenodd" d="M288 410.935H336V340.902H335V409.476H288V410.935Z" fill="#2A1ADB" fill-opacity="0.1"/>
<path fill-rule="evenodd" clip-rule="evenodd" d="M336 410.935H384V340.902H383V409.476H336V410.935Z" fill="#2A1ADB" fill-opacity="0.1"/>
<path fill-rule="evenodd" clip-rule="evenodd" d="M384 410.935H432V340.902H431V409.476H384V410.935Z" fill="#2A1ADB" fill-opacity="0.1"/>
<path fill-rule="evenodd" clip-rule="evenodd" d="M432 410.935H480V340.902H479V409.476H432V410.935Z" fill="#2A1ADB" fill-opacity="0.1"/>
<path fill-rule="evenodd" clip-rule="evenodd" d="M480 410.935H528V340.902H527V409.476H480V410.935Z" fill="#2A1ADB" fill-opacity="0.1"/>
<path fill-rule="evenodd" clip-rule="evenodd" d="M528 410.935H576V340.902H575V409.476H528V410.935Z" fill="#2A1ADB" fill-opacity="0.1"/>
<path fill-rule="evenodd" clip-rule="evenodd" d="M576 410.935H624V340.902H623V409.476H576V410.935Z" fill="#2A1ADB" fill-opacity="0.1"/>
<path d="M624 340.902H672V410.935H624V340.902Z" fill="#EBEAFE"/>
<path fill-rule="evenodd" clip-rule="evenodd" d="M624 410.935H672V340.902H671V409.476H624V410.935Z" fill="#EBEAFE"/>
<path fill-rule="evenodd" clip-rule="evenodd" d="M672 410.935H720V340.902H719V409.476H672V410.935Z" fill="#2A1ADB" fill-opacity="0.1"/>
<path fill-rule="evenodd" clip-rule="evenodd" d="M720 410.935H768V340.902H767V409.476H720V410.935Z" fill="#2A1ADB" fill-opacity="0.1"/>
<path fill-rule="evenodd" clip-rule="evenodd" d="M768 410.935H816V340.902H815V409.476H768V410.935Z" fill="#2A1ADB" fill-opacity="0.1"/>
<path fill-rule="evenodd" clip-rule="evenodd" d="M816 410.935H864V340.902H863V409.476H816V410.935Z" fill="#2A1ADB" fill-opacity="0.1"/>
<path fill-rule="evenodd" clip-rule="evenodd" d="M864 410.935H912V340.902H911V409.476H864V410.935Z" fill="#2A1ADB" fill-opacity="0.1"/>
<path fill-rule="evenodd" clip-rule="evenodd" d="M912 410.935H960V340.902H959V409.476H912V410.935Z" fill="#2A1ADB" fill-opacity="0.1"/>
<path d="M960 340.902H1008V410.935H960V340.902Z" fill="#EBEAFE"/>
<path fill-rule="evenodd" clip-rule="evenodd" d="M960 410.935H1008V340.902H1007V409.476H960V410.935Z" fill="#EBEAFE"/>
<path fill-rule="evenodd" clip-rule="evenodd" d="M1008 410.935H1056V340.902H1055V409.476H1008V410.935Z" fill="#2A1ADB" fill-opacity="0.1"/>
<path fill-rule="evenodd" clip-rule="evenodd" d="M1056 410.935H1104V340.902H1103V409.476H1056V410.935Z" fill="#2A1ADB" fill-opacity="0.1"/>
<path fill-rule="evenodd" clip-rule="evenodd" d="M1104 410.935H1152V340.902H1151V409.476H1104V410.935Z" fill="#2A1ADB" fill-opacity="0.1"/>
<path fill-rule="evenodd" clip-rule="evenodd" d="M1152 410.935H1200V340.902H1199V409.476H1152V410.935Z" fill="#2A1ADB" fill-opacity="0.1"/>
<path fill-rule="evenodd" clip-rule="evenodd" d="M1200 410.935H1248V340.902H1247V409.476H1200V410.935Z" fill="#2A1ADB" fill-opacity="0.1"/>
<path fill-rule="evenodd" clip-rule="evenodd" d="M1248 410.935H1296V340.902H1295V409.476H1248V410.935Z" fill="#2A1ADB" fill-opacity="0.1"/>
<path fill-rule="evenodd" clip-rule="evenodd" d="M1296 410.935H1344V340.902H1343V409.476H1296V410.935Z" fill="#2A1ADB" fill-opacity="0.1"/>
<path fill-rule="evenodd" clip-rule="evenodd" d="M1344 410.935H1392V340.902H1391V409.476H1344V410.935Z" fill="#2A1ADB" fill-opacity="0.1"/>
<path fill-rule="evenodd" clip-rule="evenodd" d="M1392 410.935H1440V340.902H1439V409.476H1392V410.935Z" fill="#2A1ADB" fill-opacity="0.1"/>
<path fill-rule="evenodd" clip-rule="evenodd" d="M0 480.967H48V410.935H47V479.508H0V480.967Z" fill="#2A1ADB" fill-opacity="0.1"/>
<path d="M48 410.935H96V480.967H48V410.935Z" fill="#EBEAFE"/>
<path fill-rule="evenodd" clip-rule="evenodd" d="M48 480.967H96V410.935H95V479.508H48V480.967Z" fill="#EBEAFE"/>
<path fill-rule="evenodd" clip-rule="evenodd" d="M96 480.967H144V410.935H143V479.508H96V480.967Z" fill="#2A1ADB" fill-opacity="0.1"/>
<path fill-rule="evenodd" clip-rule="evenodd" d="M144 480.967H192V410.935H191V479.508H144V480.967Z" fill="#EBEAFE"/>
<path fill-rule="evenodd" clip-rule="evenodd" d="M192 480.967H240V410.935H239V479.508H192V480.967Z" fill="#2A1ADB" fill-opacity="0.1"/>
<path fill-rule="evenodd" clip-rule="evenodd" d="M240 480.967H288V410.935H287V479.508H240V480.967Z" fill="#2A1ADB" fill-opacity="0.1"/>
<path fill-rule="evenodd" clip-rule="evenodd" d="M288 480.967H336V410.935H335V479.508H288V480.967Z" fill="#2A1ADB" fill-opacity="0.1"/>
<path d="M336 410.935H384V480.967H336V410.935Z" fill="#EBEAFE"/>
<path fill-rule="evenodd" clip-rule="evenodd" d="M336 480.967H384V410.935H383V479.508H336V480.967Z" fill="#EBEAFE"/>
<path fill-rule="evenodd" clip-rule="evenodd" d="M384 480.967H432V410.935H431V479.508H384V480.967Z" fill="#2A1ADB" fill-opacity="0.1"/>
<path fill-rule="evenodd" clip-rule="evenodd" d="M432 480.967H480V410.935H479V479.508H432V480.967Z" fill="#2A1ADB" fill-opacity="0.1"/>
<path fill-rule="evenodd" clip-rule="evenodd" d="M480 480.967H528V410.935H527V479.508H480V480.967Z" fill="#2A1ADB" fill-opacity="0.1"/>
<path fill-rule="evenodd" clip-rule="evenodd" d="M528 480.967H576V410.935H575V479.508H528V480.967Z" fill="#2A1ADB" fill-opacity="0.1"/>
<path fill-rule="evenodd" clip-rule="evenodd" d="M576 480.967H624V410.935H623V479.508H576V480.967Z" fill="#2A1ADB" fill-opacity="0.1"/>
<path fill-rule="evenodd" clip-rule="evenodd" d="M624 480.967H672V410.935H671V479.508H624V480.967Z" fill="#2A1ADB" fill-opacity="0.1"/>
<path fill-rule="evenodd" clip-rule="evenodd" d="M672 480.967H720V410.935H719V479.508H672V480.967Z" fill="#EBEAFE"/>
<path d="M720 410.935H768V480.967H720V410.935Z" fill="#EBEAFE"/>
<path fill-rule="evenodd" clip-rule="evenodd" d="M720 480.967H768V410.935H767V479.508H720V480.967Z" fill="#EBEAFE"/>
<path fill-rule="evenodd" clip-rule="evenodd" d="M768 480.967H816V410.935H815V479.508H768V480.967Z" fill="#2A1ADB" fill-opacity="0.1"/>
<path fill-rule="evenodd" clip-rule="evenodd" d="M816 480.967H864V410.935H863V479.508H816V480.967Z" fill="#2A1ADB" fill-opacity="0.1"/>
<path fill-rule="evenodd" clip-rule="evenodd" d="M864 480.967H912V410.935H911V479.508H864V480.967Z" fill="#2A1ADB" fill-opacity="0.1"/>
<path fill-rule="evenodd" clip-rule="evenodd" d="M912 480.967H960V410.935H959V479.508H912V480.967Z" fill="#2A1ADB" fill-opacity="0.1"/>
<path fill-rule="evenodd" clip-rule="evenodd" d="M960 480.967H1008V410.935H1007V479.508H960V480.967Z" fill="#2A1ADB" fill-opacity="0.1"/>
<path fill-rule="evenodd" clip-rule="evenodd" d="M1008 480.967H1056V410.935H1055V479.508H1008V480.967Z" fill="#2A1ADB" fill-opacity="0.1"/>
<path fill-rule="evenodd" clip-rule="evenodd" d="M1056 480.967H1104V410.935H1103V479.508H1056V480.967Z" fill="#2A1ADB" fill-opacity="0.1"/>
<path fill-rule="evenodd" clip-rule="evenodd" d="M1104 480.967H1152V410.935H1151V479.508H1104V480.967Z" fill="#2A1ADB" fill-opacity="0.1"/>
<path d="M1152 410.935H1200V480.967H1152V410.935Z" fill="#EBEAFE"/>
<path fill-rule="evenodd" clip-rule="evenodd" d="M1152 480.967H1200V410.935H1199V479.508H1152V480.967Z" fill="#EBEAFE"/>
<path fill-rule="evenodd" clip-rule="evenodd" d="M1200 480.967H1248V410.935H1247V479.508H1200V480.967Z" fill="#2A1ADB" fill-opacity="0.1"/>
<path fill-rule="evenodd" clip-rule="evenodd" d="M1248 480.967H1296V410.935H1295V479.508H1248V480.967Z" fill="#2A1ADB" fill-opacity="0.1"/>
<path fill-rule="evenodd" clip-rule="evenodd" d="M1296 480.967H1344V410.935H1343V479.508H1296V480.967Z" fill="#2A1ADB" fill-opacity="0.1"/>
<path fill-rule="evenodd" clip-rule="evenodd" d="M1344 480.967H1392V410.935H1391V479.508H1344V480.967Z" fill="#2A1ADB" fill-opacity="0.1"/>
<path fill-rule="evenodd" clip-rule="evenodd" d="M1392 480.967H1440V410.935H1439V479.508H1392V480.967Z" fill="#2A1ADB" fill-opacity="0.1"/>
<path fill-rule="evenodd" clip-rule="evenodd" d="M0 551H48V480.967H47V549.541H0V551Z" fill="#2A1ADB" fill-opacity="0.1"/>
<path fill-rule="evenodd" clip-rule="evenodd" d="M48 551H96V480.967H95V549.541H48V551Z" fill="#2A1ADB" fill-opacity="0.1"/>
<path fill-rule="evenodd" clip-rule="evenodd" d="M96 551H144V480.967H143V549.541H96V551Z" fill="#2A1ADB" fill-opacity="0.1"/>
<path fill-rule="evenodd" clip-rule="evenodd" d="M144 551H192V480.967H191V549.541H144V551Z" fill="#2A1ADB" fill-opacity="0.1"/>
<path fill-rule="evenodd" clip-rule="evenodd" d="M192 551H240V480.967H239V549.541H192V551Z" fill="#2A1ADB" fill-opacity="0.1"/>
<path fill-rule="evenodd" clip-rule="evenodd" d="M240 551H288V480.967H287V549.541H240V551Z" fill="#2A1ADB" fill-opacity="0.1"/>
<path fill-rule="evenodd" clip-rule="evenodd" d="M288 551H336V480.967H335V549.541H288V551Z" fill="#2A1ADB" fill-opacity="0.1"/>
<path fill-rule="evenodd" clip-rule="evenodd" d="M336 551H384V480.967H383V549.541H336V551Z" fill="#2A1ADB" fill-opacity="0.1"/>
<path fill-rule="evenodd" clip-rule="evenodd" d="M384 551H432V480.967H431V549.541H384V551Z" fill="#2A1ADB" fill-opacity="0.1"/>
<path fill-rule="evenodd" clip-rule="evenodd" d="M432 551H480V480.967H479V549.541H432V551Z" fill="#2A1ADB" fill-opacity="0.1"/>
<path fill-rule="evenodd" clip-rule="evenodd" d="M480 551H528V480.967H527V549.541H480V551Z" fill="#2A1ADB" fill-opacity="0.1"/>
<path fill-rule="evenodd" clip-rule="evenodd" d="M528 551H576V480.967H575V549.541H528V551Z" fill="#2A1ADB" fill-opacity="0.1"/>
<path fill-rule="evenodd" clip-rule="evenodd" d="M576 551H624V480.967H623V549.541H576V551Z" fill="#2A1ADB" fill-opacity="0.1"/>
<path fill-rule="evenodd" clip-rule="evenodd" d="M624 551H672V480.967H671V549.541H624V551Z" fill="#2A1ADB" fill-opacity="0.1"/>
<path fill-rule="evenodd" clip-rule="evenodd" d="M672 551H720V480.967H719V549.541H672V551Z" fill="#2A1ADB" fill-opacity="0.1"/>
<path fill-rule="evenodd" clip-rule="evenodd" d="M720 551H768V480.967H767V549.541H720V551Z" fill="#2A1ADB" fill-opacity="0.1"/>
<path fill-rule="evenodd" clip-rule="evenodd" d="M768 551H816V480.967H815V549.541H768V551Z" fill="#2A1ADB" fill-opacity="0.1"/>
<path fill-rule="evenodd" clip-rule="evenodd" d="M816 551H864V480.967H863V549.541H816V551Z" fill="#2A1ADB" fill-opacity="0.1"/>
<path fill-rule="evenodd" clip-rule="evenodd" d="M864 551H912V480.967H911V549.541H864V551Z" fill="#2A1ADB" fill-opacity="0.1"/>
<path fill-rule="evenodd" clip-rule="evenodd" d="M912 551H960V480.967H959V549.541H912V551Z" fill="#2A1ADB" fill-opacity="0.1"/>
<path fill-rule="evenodd" clip-rule="evenodd" d="M960 551H1008V480.967H1007V549.541H960V551Z" fill="#2A1ADB" fill-opacity="0.1"/>
<path fill-rule="evenodd" clip-rule="evenodd" d="M1008 551H1056V480.967H1055V549.541H1008V551Z" fill="#2A1ADB" fill-opacity="0.1"/>
<path fill-rule="evenodd" clip-rule="evenodd" d="M1056 551H1104V480.967H1103V549.541H1056V551Z" fill="#2A1ADB" fill-opacity="0.1"/>
<path fill-rule="evenodd" clip-rule="evenodd" d="M1104 551H1152V480.967H1151V549.541H1104V551Z" fill="#2A1ADB" fill-opacity="0.1"/>
<path fill-rule="evenodd" clip-rule="evenodd" d="M1152 551H1200V480.967H1199V549.541H1152V551Z" fill="#2A1ADB" fill-opacity="0.1"/>
<path fill-rule="evenodd" clip-rule="evenodd" d="M1200 551H1248V480.967H1247V549.541H1200V551Z" fill="#2A1ADB" fill-opacity="0.1"/>
<path fill-rule="evenodd" clip-rule="evenodd" d="M1248 551H1296V480.967H1295V549.541H1248V551Z" fill="#2A1ADB" fill-opacity="0.1"/>
<path fill-rule="evenodd" clip-rule="evenodd" d="M1296 551H1344V480.967H1343V549.541H1296V551Z" fill="#2A1ADB" fill-opacity="0.1"/>
<path fill-rule="evenodd" clip-rule="evenodd" d="M1344 551H1392V480.967H1391V549.541H1344V551Z" fill="#2A1ADB" fill-opacity="0.1"/>
<path fill-rule="evenodd" clip-rule="evenodd" d="M1392 551H1440V480.967H1439V549.541H1392V551Z" fill="#2A1ADB" fill-opacity="0.1"/>
</g>
<defs>
<clipPath id="clip0_1491_27409">
<rect width="1440" height="551" fill="white"/>
</clipPath>
</defs>
</svg>
