<svg width="390" height="432" viewBox="0 0 390 432" fill="none" xmlns="http://www.w3.org/2000/svg">
<g opacity="0.3" clip-path="url(#clip0_1_6229)">
<path fill-rule="evenodd" clip-rule="evenodd" d="M0 54.9076H48V0H47V53.7637H0V54.9076Z" fill="#2A1ADB" fill-opacity="0.1"/>
<path fill-rule="evenodd" clip-rule="evenodd" d="M48 54.9076H96V0H95V53.7637H48V54.9076Z" fill="#2A1ADB" fill-opacity="0.1"/>
<path fill-rule="evenodd" clip-rule="evenodd" d="M96 54.9076H144V0H143V53.7637H96V54.9076Z" fill="#2A1ADB" fill-opacity="0.1"/>
<path fill-rule="evenodd" clip-rule="evenodd" d="M144 54.9076H192V0H191V53.7637H144V54.9076Z" fill="#2A1ADB" fill-opacity="0.1"/>
<path fill-rule="evenodd" clip-rule="evenodd" d="M192 54.9076H240V0H239V53.7637H192V54.9076Z" fill="#2A1ADB" fill-opacity="0.1"/>
<path fill-rule="evenodd" clip-rule="evenodd" d="M240 54.9076H288V0H287V53.7637H240V54.9076Z" fill="#2A1ADB" fill-opacity="0.1"/>
<path d="M288 0H336V54.9076H288V0Z" fill="#EBEAFE"/>
<path fill-rule="evenodd" clip-rule="evenodd" d="M288 54.9076H336V0H335V53.7637H288V54.9076Z" fill="#EBEAFE"/>
<path fill-rule="evenodd" clip-rule="evenodd" d="M336 54.9076H384V0H383V53.7637H336V54.9076Z" fill="#2A1ADB" fill-opacity="0.1"/>
<path fill-rule="evenodd" clip-rule="evenodd" d="M384 54.9076H432V0H431V53.7637H384V54.9076Z" fill="#2A1ADB" fill-opacity="0.1"/>
<path fill-rule="evenodd" clip-rule="evenodd" d="M432 54.9076H480V0H479V53.7637H432V54.9076Z" fill="#2A1ADB" fill-opacity="0.1"/>
<path fill-rule="evenodd" clip-rule="evenodd" d="M480 54.9076H528V0H527V53.7637H480V54.9076Z" fill="#2A1ADB" fill-opacity="0.1"/>
<path fill-rule="evenodd" clip-rule="evenodd" d="M528 54.9076H576V0H575V53.7637H528V54.9076Z" fill="#2A1ADB" fill-opacity="0.1"/>
<path d="M576 0H624V54.9076H576V0Z" fill="#EBEAFE"/>
<path fill-rule="evenodd" clip-rule="evenodd" d="M576 54.9076H624V0H623V53.7637H576V54.9076Z" fill="#EBEAFE"/>
<path fill-rule="evenodd" clip-rule="evenodd" d="M624 54.9076H672V0H671V53.7637H624V54.9076Z" fill="#2A1ADB" fill-opacity="0.1"/>
<path fill-rule="evenodd" clip-rule="evenodd" d="M672 54.9076H720V0H719V53.7637H672V54.9076Z" fill="#2A1ADB" fill-opacity="0.1"/>
<path fill-rule="evenodd" clip-rule="evenodd" d="M720 54.9076H768V0H767V53.7637H720V54.9076Z" fill="#2A1ADB" fill-opacity="0.1"/>
<path fill-rule="evenodd" clip-rule="evenodd" d="M768 54.9076H816V0H815V53.7637H768V54.9076Z" fill="#2A1ADB" fill-opacity="0.1"/>
<path fill-rule="evenodd" clip-rule="evenodd" d="M816 54.9076H864V0H863V53.7637H816V54.9076Z" fill="#2A1ADB" fill-opacity="0.1"/>
<path fill-rule="evenodd" clip-rule="evenodd" d="M864 54.9076H912V0H911V53.7637H864V54.9076Z" fill="#2A1ADB" fill-opacity="0.1"/>
<path fill-rule="evenodd" clip-rule="evenodd" d="M912 54.9076H960V0H959V53.7637H912V54.9076Z" fill="#2A1ADB" fill-opacity="0.1"/>
<path fill-rule="evenodd" clip-rule="evenodd" d="M960 54.9076H1008V0H1007V53.7637H960V54.9076Z" fill="#2A1ADB" fill-opacity="0.1"/>
<path fill-rule="evenodd" clip-rule="evenodd" d="M1008 54.9076H1056V0H1055V53.7637H1008V54.9076Z" fill="#2A1ADB" fill-opacity="0.1"/>
<path d="M1056 0H1104V54.9076H1056V0Z" fill="#EBEAFE"/>
<path fill-rule="evenodd" clip-rule="evenodd" d="M1056 54.9076H1104V0H1103V53.7637H1056V54.9076Z" fill="#EBEAFE"/>
<path fill-rule="evenodd" clip-rule="evenodd" d="M1104 54.9076H1152V0H1151V53.7637H1104V54.9076Z" fill="#2A1ADB" fill-opacity="0.1"/>
<path fill-rule="evenodd" clip-rule="evenodd" d="M1152 54.9076H1200V0H1199V53.7637H1152V54.9076Z" fill="#2A1ADB" fill-opacity="0.1"/>
<path fill-rule="evenodd" clip-rule="evenodd" d="M1200 54.9076H1248V0H1247V53.7637H1200V54.9076Z" fill="#2A1ADB" fill-opacity="0.1"/>
<path fill-rule="evenodd" clip-rule="evenodd" d="M1248 54.9076H1296V0H1295V53.7637H1248V54.9076Z" fill="#2A1ADB" fill-opacity="0.1"/>
<path fill-rule="evenodd" clip-rule="evenodd" d="M1296 54.9076H1344V0H1343V53.7637H1296V54.9076Z" fill="#2A1ADB" fill-opacity="0.1"/>
<path fill-rule="evenodd" clip-rule="evenodd" d="M1344 54.9076H1392V0H1391V53.7637H1344V54.9076Z" fill="#2A1ADB" fill-opacity="0.1"/>
<path fill-rule="evenodd" clip-rule="evenodd" d="M1392 54.9076H1440V0H1439V53.7637H1392V54.9076Z" fill="#2A1ADB" fill-opacity="0.1"/>
<path fill-rule="evenodd" clip-rule="evenodd" d="M0 109.815H48V54.9076L47 54.9076V108.671H0V109.815Z" fill="#2A1ADB" fill-opacity="0.1"/>
<path fill-rule="evenodd" clip-rule="evenodd" d="M48 109.815H96V54.9076L95 54.9076V108.671H48V109.815Z" fill="#2A1ADB" fill-opacity="0.1"/>
<path fill-rule="evenodd" clip-rule="evenodd" d="M96 109.815H144V54.9076L143 54.9076V108.671H96V109.815Z" fill="#2A1ADB" fill-opacity="0.1"/>
<path fill-rule="evenodd" clip-rule="evenodd" d="M144 109.815H192V54.9076L191 54.9076V108.671H144V109.815Z" fill="#2A1ADB" fill-opacity="0.1"/>
<path d="M192 54.9076H240V109.815H192V54.9076Z" fill="#EBEAFE"/>
<path fill-rule="evenodd" clip-rule="evenodd" d="M192 109.815H240V54.9076L239 54.9076V108.671H192V109.815Z" fill="#EBEAFE"/>
<path fill-rule="evenodd" clip-rule="evenodd" d="M240 109.815H288V54.9076L287 54.9076V108.671H240V109.815Z" fill="#2A1ADB" fill-opacity="0.1"/>
<path fill-rule="evenodd" clip-rule="evenodd" d="M288 109.815H336V54.9076L335 54.9076V108.671H288V109.815Z" fill="#2A1ADB" fill-opacity="0.1"/>
<path fill-rule="evenodd" clip-rule="evenodd" d="M336 109.815H384V54.9076L383 54.9076V108.671H336V109.815Z" fill="#2A1ADB" fill-opacity="0.1"/>
<path d="M384 54.9076H432V109.815H384V54.9076Z" fill="#EBEAFE"/>
<path fill-rule="evenodd" clip-rule="evenodd" d="M384 109.815H432V54.9076L431 54.9076V108.671H384V109.815Z" fill="#EBEAFE"/>
<path fill-rule="evenodd" clip-rule="evenodd" d="M432 109.815H480V54.9076L479 54.9076V108.671H432V109.815Z" fill="#2A1ADB" fill-opacity="0.1"/>
<path fill-rule="evenodd" clip-rule="evenodd" d="M480 109.815H528V54.9076L527 54.9076V108.671H480V109.815Z" fill="#2A1ADB" fill-opacity="0.1"/>
<path fill-rule="evenodd" clip-rule="evenodd" d="M528 109.815H576V54.9076L575 54.9076V108.671H528V109.815Z" fill="#2A1ADB" fill-opacity="0.1"/>
<path fill-rule="evenodd" clip-rule="evenodd" d="M576 109.815H624V54.9076L623 54.9076V108.671H576V109.815Z" fill="#2A1ADB" fill-opacity="0.1"/>
<path fill-rule="evenodd" clip-rule="evenodd" d="M624 109.815H672V54.9076L671 54.9076V108.671H624V109.815Z" fill="#2A1ADB" fill-opacity="0.1"/>
<path fill-rule="evenodd" clip-rule="evenodd" d="M672 109.815H720V54.9076L719 54.9076V108.671H672V109.815Z" fill="#2A1ADB" fill-opacity="0.1"/>
<path fill-rule="evenodd" clip-rule="evenodd" d="M720 109.815H768V54.9076L767 54.9076V108.671H720V109.815Z" fill="#2A1ADB" fill-opacity="0.1"/>
<path fill-rule="evenodd" clip-rule="evenodd" d="M768 109.815H816V54.9076L815 54.9076V108.671H768V109.815Z" fill="#2A1ADB" fill-opacity="0.1"/>
<path d="M816 54.9076H864V109.815H816V54.9076Z" fill="#EBEAFE"/>
<path fill-rule="evenodd" clip-rule="evenodd" d="M816 109.815H864V54.9076L863 54.9076V108.671H816V109.815Z" fill="#EBEAFE"/>
<path fill-rule="evenodd" clip-rule="evenodd" d="M864 109.815H912V54.9076L911 54.9076V108.671H864V109.815Z" fill="#2A1ADB" fill-opacity="0.1"/>
<path fill-rule="evenodd" clip-rule="evenodd" d="M912 109.815H960V54.9076L959 54.9076V108.671H912V109.815Z" fill="#2A1ADB" fill-opacity="0.1"/>
<path fill-rule="evenodd" clip-rule="evenodd" d="M960 109.815H1008V54.9076L1007 54.9076V108.671H960V109.815Z" fill="#2A1ADB" fill-opacity="0.1"/>
<path fill-rule="evenodd" clip-rule="evenodd" d="M1008 109.815H1056V54.9076L1055 54.9076V108.671H1008V109.815Z" fill="#2A1ADB" fill-opacity="0.1"/>
<path fill-rule="evenodd" clip-rule="evenodd" d="M1056 109.815H1104V54.9076L1103 54.9076V108.671H1056V109.815Z" fill="#2A1ADB" fill-opacity="0.1"/>
<path fill-rule="evenodd" clip-rule="evenodd" d="M1104 109.815H1152V54.9076L1151 54.9076V108.671H1104V109.815Z" fill="#2A1ADB" fill-opacity="0.1"/>
<path fill-rule="evenodd" clip-rule="evenodd" d="M1152 109.815H1200V54.9076L1199 54.9076V108.671H1152V109.815Z" fill="#2A1ADB" fill-opacity="0.1"/>
<path fill-rule="evenodd" clip-rule="evenodd" d="M1200 109.815H1248V54.9076L1247 54.9076V108.671H1200V109.815Z" fill="#2A1ADB" fill-opacity="0.1"/>
<path fill-rule="evenodd" clip-rule="evenodd" d="M1248 109.815H1296V54.9076L1295 54.9076V108.671H1248V109.815Z" fill="#2A1ADB" fill-opacity="0.1"/>
<path fill-rule="evenodd" clip-rule="evenodd" d="M1296 109.815H1344V54.9076L1343 54.9076V108.671H1296V109.815Z" fill="#2A1ADB" fill-opacity="0.1"/>
<path d="M1344 54.9076H1392V109.815H1344V54.9076Z" fill="#EBEAFE"/>
<path fill-rule="evenodd" clip-rule="evenodd" d="M1344 109.815H1392V54.9076L1391 54.9076V108.671H1344V109.815Z" fill="#EBEAFE"/>
<path fill-rule="evenodd" clip-rule="evenodd" d="M1392 109.815H1440V54.9076L1439 54.9076V108.671H1392V109.815Z" fill="#2A1ADB" fill-opacity="0.1"/>
<path fill-rule="evenodd" clip-rule="evenodd" d="M0 157.462H48V109.815H47V156.47H0V157.462Z" fill="#2A1ADB" fill-opacity="0.1"/>
<path d="M48 109.815H96V157.462H48V109.815Z" fill="#EBEAFE"/>
<path fill-rule="evenodd" clip-rule="evenodd" d="M48 157.462H96V109.815H95V156.47H48V157.462Z" fill="#EBEAFE"/>
<path fill-rule="evenodd" clip-rule="evenodd" d="M96 157.462H144V109.815H143V156.47H96V157.462Z" fill="#2A1ADB" fill-opacity="0.1"/>
<path fill-rule="evenodd" clip-rule="evenodd" d="M144 157.462H192V109.815H191V156.47H144V157.462Z" fill="#2A1ADB" fill-opacity="0.1"/>
<path fill-rule="evenodd" clip-rule="evenodd" d="M192 157.462H240V109.815H239V156.47H192V157.462Z" fill="#2A1ADB" fill-opacity="0.1"/>
<path fill-rule="evenodd" clip-rule="evenodd" d="M240 157.462H288V109.815H287V156.47H240V157.462Z" fill="#2A1ADB" fill-opacity="0.1"/>
<path fill-rule="evenodd" clip-rule="evenodd" d="M288 157.462H336V109.815H335V156.47H288V157.462Z" fill="#2A1ADB" fill-opacity="0.1"/>
<path fill-rule="evenodd" clip-rule="evenodd" d="M336 157.462H384V109.815H383V156.47H336V157.462Z" fill="#2A1ADB" fill-opacity="0.1"/>
<path fill-rule="evenodd" clip-rule="evenodd" d="M384 157.462H432V109.815H431V156.47H384V157.462Z" fill="#2A1ADB" fill-opacity="0.1"/>
<path fill-rule="evenodd" clip-rule="evenodd" d="M432 157.462H480V109.815H479V156.47H432V157.462Z" fill="#2A1ADB" fill-opacity="0.1"/>
<path fill-rule="evenodd" clip-rule="evenodd" d="M480 157.462H528V109.815H527V156.47H480V157.462Z" fill="#2A1ADB" fill-opacity="0.1"/>
<path fill-rule="evenodd" clip-rule="evenodd" d="M528 157.462H576V109.815H575V156.47H528V157.462Z" fill="#2A1ADB" fill-opacity="0.1"/>
<path fill-rule="evenodd" clip-rule="evenodd" d="M576 157.462H624V109.815H623V156.47H576V157.462Z" fill="#2A1ADB" fill-opacity="0.1"/>
<path d="M624 109.815H672V157.462H624V109.815Z" fill="#EBEAFE"/>
<path fill-rule="evenodd" clip-rule="evenodd" d="M624 157.462H672V109.815H671V156.47H624V157.462Z" fill="#EBEAFE"/>
<path fill-rule="evenodd" clip-rule="evenodd" d="M672 157.462H720V109.815H719V156.47H672V157.462Z" fill="#2A1ADB" fill-opacity="0.1"/>
<path fill-rule="evenodd" clip-rule="evenodd" d="M720 157.462H768V109.815H767V156.47H720V157.462Z" fill="#2A1ADB" fill-opacity="0.1"/>
<path fill-rule="evenodd" clip-rule="evenodd" d="M768 157.462H816V109.815H815V156.47H768V157.462Z" fill="#2A1ADB" fill-opacity="0.1"/>
<path fill-rule="evenodd" clip-rule="evenodd" d="M816 157.462H864V109.815H863V156.47H816V157.462Z" fill="#2A1ADB" fill-opacity="0.1"/>
<path fill-rule="evenodd" clip-rule="evenodd" d="M864 157.462H912V109.815H911V156.47H864V157.462Z" fill="#2A1ADB" fill-opacity="0.1"/>
<path fill-rule="evenodd" clip-rule="evenodd" d="M912 157.462H960V109.815H959V156.47H912V157.462Z" fill="#2A1ADB" fill-opacity="0.1"/>
<path fill-rule="evenodd" clip-rule="evenodd" d="M960 157.462H1008V109.815H1007V156.47H960V157.462Z" fill="#2A1ADB" fill-opacity="0.1"/>
<path fill-rule="evenodd" clip-rule="evenodd" d="M1008 157.462H1056V109.815H1055V156.47H1008V157.462Z" fill="#2A1ADB" fill-opacity="0.1"/>
<path d="M1056 109.815H1104V157.462H1056V109.815Z" fill="#EBEAFE"/>
<path fill-rule="evenodd" clip-rule="evenodd" d="M1056 157.462H1104V109.815H1103V156.47H1056V157.462Z" fill="#EBEAFE"/>
<path fill-rule="evenodd" clip-rule="evenodd" d="M1104 157.462H1152V109.815H1151V156.47H1104V157.462Z" fill="#2A1ADB" fill-opacity="0.1"/>
<path fill-rule="evenodd" clip-rule="evenodd" d="M1152 157.462H1200V109.815H1199V156.47H1152V157.462Z" fill="#2A1ADB" fill-opacity="0.1"/>
<path fill-rule="evenodd" clip-rule="evenodd" d="M1200 157.462H1248V109.815H1247V156.47H1200V157.462Z" fill="#2A1ADB" fill-opacity="0.1"/>
<path fill-rule="evenodd" clip-rule="evenodd" d="M1248 157.462H1296V109.815H1295V156.47H1248V157.462Z" fill="#2A1ADB" fill-opacity="0.1"/>
<path fill-rule="evenodd" clip-rule="evenodd" d="M1296 157.462H1344V109.815H1343V156.47H1296V157.462Z" fill="#2A1ADB" fill-opacity="0.1"/>
<path fill-rule="evenodd" clip-rule="evenodd" d="M1344 157.462H1392V109.815H1391V156.47H1344V157.462Z" fill="#2A1ADB" fill-opacity="0.1"/>
<path fill-rule="evenodd" clip-rule="evenodd" d="M1392 157.462H1440V109.815H1439V156.47H1392V157.462Z" fill="#2A1ADB" fill-opacity="0.1"/>
<path fill-rule="evenodd" clip-rule="evenodd" d="M0 212.37H48V157.462H47V211.226H0V212.37Z" fill="#2A1ADB" fill-opacity="0.1"/>
<path fill-rule="evenodd" clip-rule="evenodd" d="M48 212.37H96V157.462H95V211.226H48V212.37Z" fill="#2A1ADB" fill-opacity="0.1"/>
<path fill-rule="evenodd" clip-rule="evenodd" d="M96 212.37H144V157.462H143V211.226H96V212.37Z" fill="#2A1ADB" fill-opacity="0.1"/>
<path d="M144 157.462H192V212.37H144V157.462Z" fill="#EBEAFE"/>
<path fill-rule="evenodd" clip-rule="evenodd" d="M144 212.37H192V157.462H191V211.226H144V212.37Z" fill="#EBEAFE"/>
<path fill-rule="evenodd" clip-rule="evenodd" d="M192 212.37H240V157.462H239V211.226H192V212.37Z" fill="#2A1ADB" fill-opacity="0.1"/>
<path fill-rule="evenodd" clip-rule="evenodd" d="M240 212.37H288V157.462H287V211.226H240V212.37Z" fill="#2A1ADB" fill-opacity="0.1"/>
<path fill-rule="evenodd" clip-rule="evenodd" d="M288 212.37H336V157.462H335V211.226H288V212.37Z" fill="#2A1ADB" fill-opacity="0.1"/>
<path fill-rule="evenodd" clip-rule="evenodd" d="M336 212.37H384V157.462H383V211.226H336V212.37Z" fill="#2A1ADB" fill-opacity="0.1"/>
<path fill-rule="evenodd" clip-rule="evenodd" d="M384 212.37H432V157.462H431V211.226H384V212.37Z" fill="#2A1ADB" fill-opacity="0.1"/>
<path fill-rule="evenodd" clip-rule="evenodd" d="M432 212.37H480V157.462H479V211.226H432V212.37Z" fill="#2A1ADB" fill-opacity="0.1"/>
<path fill-rule="evenodd" clip-rule="evenodd" d="M480 212.37H528V157.462H527V211.226H480V212.37Z" fill="#2A1ADB" fill-opacity="0.1"/>
<path d="M528 157.462H576V212.37H528V157.462Z" fill="#EBEAFE"/>
<path fill-rule="evenodd" clip-rule="evenodd" d="M528 212.37H576V157.462H575V211.226H528V212.37Z" fill="#EBEAFE"/>
<path fill-rule="evenodd" clip-rule="evenodd" d="M576 212.37H624V157.462H623V211.226H576V212.37Z" fill="#2A1ADB" fill-opacity="0.1"/>
<path fill-rule="evenodd" clip-rule="evenodd" d="M624 212.37H672V157.462H671V211.226H624V212.37Z" fill="#2A1ADB" fill-opacity="0.1"/>
<path fill-rule="evenodd" clip-rule="evenodd" d="M672 212.37H720V157.462H719V211.226H672V212.37Z" fill="#2A1ADB" fill-opacity="0.1"/>
<path fill-rule="evenodd" clip-rule="evenodd" d="M720 212.37H768V157.462H767V211.226H720V212.37Z" fill="#2A1ADB" fill-opacity="0.1"/>
<path fill-rule="evenodd" clip-rule="evenodd" d="M768 212.37H816V157.462H815V211.226H768V212.37Z" fill="#2A1ADB" fill-opacity="0.1"/>
<path fill-rule="evenodd" clip-rule="evenodd" d="M816 212.37H864V157.462H863V211.226H816V212.37Z" fill="#2A1ADB" fill-opacity="0.1"/>
<path fill-rule="evenodd" clip-rule="evenodd" d="M864 212.37H912V157.462H911V211.226H864V212.37Z" fill="#2A1ADB" fill-opacity="0.1"/>
<path fill-rule="evenodd" clip-rule="evenodd" d="M912 212.37H960V157.462H959V211.226H912V212.37Z" fill="#2A1ADB" fill-opacity="0.1"/>
<path fill-rule="evenodd" clip-rule="evenodd" d="M960 212.37H1008V157.462H1007V211.226H960V212.37Z" fill="#2A1ADB" fill-opacity="0.1"/>
<path d="M1008 157.462H1056V212.37H1008V157.462Z" fill="#EBEAFE"/>
<path fill-rule="evenodd" clip-rule="evenodd" d="M1008 212.37H1056V157.462H1055V211.226H1008V212.37Z" fill="#EBEAFE"/>
<path fill-rule="evenodd" clip-rule="evenodd" d="M1056 212.37H1104V157.462H1103V211.226H1056V212.37Z" fill="#2A1ADB" fill-opacity="0.1"/>
<path fill-rule="evenodd" clip-rule="evenodd" d="M1104 212.37H1152V157.462H1151V211.226H1104V212.37Z" fill="#2A1ADB" fill-opacity="0.1"/>
<path fill-rule="evenodd" clip-rule="evenodd" d="M1152 212.37H1200V157.462H1199V211.226H1152V212.37Z" fill="#2A1ADB" fill-opacity="0.1"/>
<path fill-rule="evenodd" clip-rule="evenodd" d="M1200 212.37H1248V157.462H1247V211.226H1200V212.37Z" fill="#2A1ADB" fill-opacity="0.1"/>
<path fill-rule="evenodd" clip-rule="evenodd" d="M1248 212.37H1296V157.462H1295V211.226H1248V212.37Z" fill="#2A1ADB" fill-opacity="0.1"/>
<path fill-rule="evenodd" clip-rule="evenodd" d="M1296 212.37H1344V157.462H1343V211.226H1296V212.37Z" fill="#2A1ADB" fill-opacity="0.1"/>
<path fill-rule="evenodd" clip-rule="evenodd" d="M1344 212.37H1392V157.462H1391V211.226H1344V212.37Z" fill="#2A1ADB" fill-opacity="0.1"/>
<path fill-rule="evenodd" clip-rule="evenodd" d="M1392 212.37H1440V157.462H1439V211.226H1392V212.37Z" fill="#2A1ADB" fill-opacity="0.1"/>
<path fill-rule="evenodd" clip-rule="evenodd" d="M0 267.277H48V212.37H47V266.133H0V267.277Z" fill="#2A1ADB" fill-opacity="0.1"/>
<path fill-rule="evenodd" clip-rule="evenodd" d="M48 267.277H96V212.37H95V266.133H48V267.277Z" fill="#2A1ADB" fill-opacity="0.1"/>
<path fill-rule="evenodd" clip-rule="evenodd" d="M96 267.277H144V212.37H143V266.133H96V267.277Z" fill="#2A1ADB" fill-opacity="0.1"/>
<path fill-rule="evenodd" clip-rule="evenodd" d="M144 267.277H192V212.37H191V266.133H144V267.277Z" fill="#2A1ADB" fill-opacity="0.1"/>
<path fill-rule="evenodd" clip-rule="evenodd" d="M192 267.277H240V212.37H239V266.133H192V267.277Z" fill="#2A1ADB" fill-opacity="0.1"/>
<path fill-rule="evenodd" clip-rule="evenodd" d="M240 267.277H288V212.37H287V266.133H240V267.277Z" fill="#2A1ADB" fill-opacity="0.1"/>
<path fill-rule="evenodd" clip-rule="evenodd" d="M288 267.277H336V212.37H335V266.133H288V267.277Z" fill="#2A1ADB" fill-opacity="0.1"/>
<path fill-rule="evenodd" clip-rule="evenodd" d="M336 267.277H384V212.37H383V266.133H336V267.277Z" fill="#2A1ADB" fill-opacity="0.1"/>
<path fill-rule="evenodd" clip-rule="evenodd" d="M384 267.277H432V212.37H431V266.133H384V267.277Z" fill="#2A1ADB" fill-opacity="0.1"/>
<path d="M432 212.37H480V267.277H432V212.37Z" fill="#EBEAFE"/>
<path fill-rule="evenodd" clip-rule="evenodd" d="M432 267.277H480V212.37H479V266.133H432V267.277Z" fill="#EBEAFE"/>
<path fill-rule="evenodd" clip-rule="evenodd" d="M480 267.277H528V212.37H527V266.133H480V267.277Z" fill="#2A1ADB" fill-opacity="0.1"/>
<path fill-rule="evenodd" clip-rule="evenodd" d="M528 267.277H576V212.37H575V266.133H528V267.277Z" fill="#2A1ADB" fill-opacity="0.1"/>
<path fill-rule="evenodd" clip-rule="evenodd" d="M576 267.277H624V212.37H623V266.133H576V267.277Z" fill="#2A1ADB" fill-opacity="0.1"/>
<path fill-rule="evenodd" clip-rule="evenodd" d="M624 267.277H672V212.37H671V266.133H624V267.277Z" fill="#2A1ADB" fill-opacity="0.1"/>
<path fill-rule="evenodd" clip-rule="evenodd" d="M672 267.277H720V212.37H719V266.133H672V267.277Z" fill="#2A1ADB" fill-opacity="0.1"/>
<path fill-rule="evenodd" clip-rule="evenodd" d="M720 267.277H768V212.37H767V266.133H720V267.277Z" fill="#2A1ADB" fill-opacity="0.1"/>
<path fill-rule="evenodd" clip-rule="evenodd" d="M768 267.277H816V212.37H815V266.133H768V267.277Z" fill="#2A1ADB" fill-opacity="0.1"/>
<path fill-rule="evenodd" clip-rule="evenodd" d="M816 267.277H864V212.37H863V266.133H816V267.277Z" fill="#2A1ADB" fill-opacity="0.1"/>
<path fill-rule="evenodd" clip-rule="evenodd" d="M864 267.277H912V212.37H911V266.133H864V267.277Z" fill="#2A1ADB" fill-opacity="0.1"/>
<path fill-rule="evenodd" clip-rule="evenodd" d="M912 267.277H960V212.37H959V266.133H912V267.277Z" fill="#2A1ADB" fill-opacity="0.1"/>
<path fill-rule="evenodd" clip-rule="evenodd" d="M960 267.277H1008V212.37H1007V266.133H960V267.277Z" fill="#2A1ADB" fill-opacity="0.1"/>
<path fill-rule="evenodd" clip-rule="evenodd" d="M1008 267.277H1056V212.37H1055V266.133H1008V267.277Z" fill="#2A1ADB" fill-opacity="0.1"/>
<path fill-rule="evenodd" clip-rule="evenodd" d="M1056 267.277H1104V212.37H1103V266.133H1056V267.277Z" fill="#2A1ADB" fill-opacity="0.1"/>
<path d="M1104 212.37H1152V267.277H1104V212.37Z" fill="#EBEAFE"/>
<path fill-rule="evenodd" clip-rule="evenodd" d="M1104 267.277H1152V212.37H1151V266.133H1104V267.277Z" fill="#EBEAFE"/>
<path fill-rule="evenodd" clip-rule="evenodd" d="M1152 267.277H1200V212.37H1199V266.133H1152V267.277Z" fill="#2A1ADB" fill-opacity="0.1"/>
<path fill-rule="evenodd" clip-rule="evenodd" d="M1200 267.277H1248V212.37H1247V266.133H1200V267.277Z" fill="#2A1ADB" fill-opacity="0.1"/>
<path fill-rule="evenodd" clip-rule="evenodd" d="M1248 267.277H1296V212.37H1295V266.133H1248V267.277Z" fill="#2A1ADB" fill-opacity="0.1"/>
<path fill-rule="evenodd" clip-rule="evenodd" d="M1296 267.277H1344V212.37H1343V266.133H1296V267.277Z" fill="#2A1ADB" fill-opacity="0.1"/>
<path fill-rule="evenodd" clip-rule="evenodd" d="M1344 267.277H1392V212.37H1391V266.133H1344V267.277Z" fill="#2A1ADB" fill-opacity="0.1"/>
<path fill-rule="evenodd" clip-rule="evenodd" d="M1392 267.277H1440V212.37H1439V266.133H1392V267.277Z" fill="#2A1ADB" fill-opacity="0.1"/>
<path fill-rule="evenodd" clip-rule="evenodd" d="M0 322.185H48V267.277H47V321.041H0V322.185Z" fill="#2A1ADB" fill-opacity="0.1"/>
<path fill-rule="evenodd" clip-rule="evenodd" d="M48 322.185H96V267.277H95V321.041H48V322.185Z" fill="#2A1ADB" fill-opacity="0.1"/>
<path fill-rule="evenodd" clip-rule="evenodd" d="M96 322.185H144V267.277H143V321.041H96V322.185Z" fill="#2A1ADB" fill-opacity="0.1"/>
<path fill-rule="evenodd" clip-rule="evenodd" d="M144 322.185H192V267.277H191V321.041H144V322.185Z" fill="#2A1ADB" fill-opacity="0.1"/>
<path d="M192 267.277H240V322.185H192V267.277Z" fill="#EBEAFE"/>
<path fill-rule="evenodd" clip-rule="evenodd" d="M192 322.185H240V267.277H239V321.041H192V322.185Z" fill="#EBEAFE"/>
<path fill-rule="evenodd" clip-rule="evenodd" d="M240 322.185H288V267.277H287V321.041H240V322.185Z" fill="#2A1ADB" fill-opacity="0.1"/>
<path fill-rule="evenodd" clip-rule="evenodd" d="M288 322.185H336V267.277H335V321.041H288V322.185Z" fill="#2A1ADB" fill-opacity="0.1"/>
<path fill-rule="evenodd" clip-rule="evenodd" d="M336 322.185H384V267.277H383V321.041H336V322.185Z" fill="#2A1ADB" fill-opacity="0.1"/>
<path fill-rule="evenodd" clip-rule="evenodd" d="M384 322.185H432V267.277H431V321.041H384V322.185Z" fill="#2A1ADB" fill-opacity="0.1"/>
<path fill-rule="evenodd" clip-rule="evenodd" d="M432 322.185H480V267.277H479V321.041H432V322.185Z" fill="#2A1ADB" fill-opacity="0.1"/>
<path fill-rule="evenodd" clip-rule="evenodd" d="M480 322.185H528V267.277H527V321.041H480V322.185Z" fill="#2A1ADB" fill-opacity="0.1"/>
<path fill-rule="evenodd" clip-rule="evenodd" d="M528 322.185H576V267.277H575V321.041H528V322.185Z" fill="#2A1ADB" fill-opacity="0.1"/>
<path fill-rule="evenodd" clip-rule="evenodd" d="M576 322.185H624V267.277H623V321.041H576V322.185Z" fill="#2A1ADB" fill-opacity="0.1"/>
<path d="M624 267.277H672V322.185H624V267.277Z" fill="#EBEAFE"/>
<path fill-rule="evenodd" clip-rule="evenodd" d="M624 322.185H672V267.277H671V321.041H624V322.185Z" fill="#EBEAFE"/>
<path fill-rule="evenodd" clip-rule="evenodd" d="M672 322.185H720V267.277H719V321.041H672V322.185Z" fill="#2A1ADB" fill-opacity="0.1"/>
<path fill-rule="evenodd" clip-rule="evenodd" d="M720 322.185H768V267.277H767V321.041H720V322.185Z" fill="#2A1ADB" fill-opacity="0.1"/>
<path fill-rule="evenodd" clip-rule="evenodd" d="M768 322.185H816V267.277H815V321.041H768V322.185Z" fill="#2A1ADB" fill-opacity="0.1"/>
<path fill-rule="evenodd" clip-rule="evenodd" d="M816 322.185H864V267.277H863V321.041H816V322.185Z" fill="#2A1ADB" fill-opacity="0.1"/>
<path fill-rule="evenodd" clip-rule="evenodd" d="M864 322.185H912V267.277H911V321.041H864V322.185Z" fill="#2A1ADB" fill-opacity="0.1"/>
<path fill-rule="evenodd" clip-rule="evenodd" d="M912 322.185H960V267.277H959V321.041H912V322.185Z" fill="#2A1ADB" fill-opacity="0.1"/>
<path d="M960 267.277H1008V322.185H960V267.277Z" fill="#EBEAFE"/>
<path fill-rule="evenodd" clip-rule="evenodd" d="M960 322.185H1008V267.277H1007V321.041H960V322.185Z" fill="#EBEAFE"/>
<path fill-rule="evenodd" clip-rule="evenodd" d="M1008 322.185H1056V267.277H1055V321.041H1008V322.185Z" fill="#2A1ADB" fill-opacity="0.1"/>
<path fill-rule="evenodd" clip-rule="evenodd" d="M1056 322.185H1104V267.277H1103V321.041H1056V322.185Z" fill="#2A1ADB" fill-opacity="0.1"/>
<path fill-rule="evenodd" clip-rule="evenodd" d="M1104 322.185H1152V267.277H1151V321.041H1104V322.185Z" fill="#2A1ADB" fill-opacity="0.1"/>
<path fill-rule="evenodd" clip-rule="evenodd" d="M1152 322.185H1200V267.277H1199V321.041H1152V322.185Z" fill="#2A1ADB" fill-opacity="0.1"/>
<path fill-rule="evenodd" clip-rule="evenodd" d="M1200 322.185H1248V267.277H1247V321.041H1200V322.185Z" fill="#2A1ADB" fill-opacity="0.1"/>
<path fill-rule="evenodd" clip-rule="evenodd" d="M1248 322.185H1296V267.277H1295V321.041H1248V322.185Z" fill="#2A1ADB" fill-opacity="0.1"/>
<path fill-rule="evenodd" clip-rule="evenodd" d="M1296 322.185H1344V267.277H1343V321.041H1296V322.185Z" fill="#2A1ADB" fill-opacity="0.1"/>
<path fill-rule="evenodd" clip-rule="evenodd" d="M1344 322.185H1392V267.277H1391V321.041H1344V322.185Z" fill="#2A1ADB" fill-opacity="0.1"/>
<path fill-rule="evenodd" clip-rule="evenodd" d="M1392 322.185H1440V267.277H1439V321.041H1392V322.185Z" fill="#2A1ADB" fill-opacity="0.1"/>
<path fill-rule="evenodd" clip-rule="evenodd" d="M0 377.092H48V322.185H47V375.949H0V377.092Z" fill="#2A1ADB" fill-opacity="0.1"/>
<path d="M48 322.185H96V377.092H48V322.185Z" fill="#EBEAFE"/>
<path fill-rule="evenodd" clip-rule="evenodd" d="M48 377.092H96V322.185H95V375.949H48V377.092Z" fill="#EBEAFE"/>
<path fill-rule="evenodd" clip-rule="evenodd" d="M96 377.092H144V322.185H143V375.949H96V377.092Z" fill="#2A1ADB" fill-opacity="0.1"/>
<path fill-rule="evenodd" clip-rule="evenodd" d="M144 377.092H192V322.185H191V375.949H144V377.092Z" fill="#EBEAFE"/>
<path fill-rule="evenodd" clip-rule="evenodd" d="M192 377.092H240V322.185H239V375.949H192V377.092Z" fill="#2A1ADB" fill-opacity="0.1"/>
<path fill-rule="evenodd" clip-rule="evenodd" d="M240 377.092H288V322.185H287V375.949H240V377.092Z" fill="#2A1ADB" fill-opacity="0.1"/>
<path fill-rule="evenodd" clip-rule="evenodd" d="M288 377.092H336V322.185H335V375.949H288V377.092Z" fill="#2A1ADB" fill-opacity="0.1"/>
<path d="M336 322.185H384V377.092H336V322.185Z" fill="#EBEAFE"/>
<path fill-rule="evenodd" clip-rule="evenodd" d="M336 377.092H384V322.185H383V375.949H336V377.092Z" fill="#EBEAFE"/>
<path fill-rule="evenodd" clip-rule="evenodd" d="M384 377.092H432V322.185H431V375.949H384V377.092Z" fill="#2A1ADB" fill-opacity="0.1"/>
<path fill-rule="evenodd" clip-rule="evenodd" d="M432 377.092H480V322.185H479V375.949H432V377.092Z" fill="#2A1ADB" fill-opacity="0.1"/>
<path fill-rule="evenodd" clip-rule="evenodd" d="M480 377.092H528V322.185H527V375.949H480V377.092Z" fill="#2A1ADB" fill-opacity="0.1"/>
<path fill-rule="evenodd" clip-rule="evenodd" d="M528 377.092H576V322.185H575V375.949H528V377.092Z" fill="#2A1ADB" fill-opacity="0.1"/>
<path fill-rule="evenodd" clip-rule="evenodd" d="M576 377.092H624V322.185H623V375.949H576V377.092Z" fill="#2A1ADB" fill-opacity="0.1"/>
<path fill-rule="evenodd" clip-rule="evenodd" d="M624 377.092H672V322.185H671V375.949H624V377.092Z" fill="#2A1ADB" fill-opacity="0.1"/>
<path fill-rule="evenodd" clip-rule="evenodd" d="M672 377.092H720V322.185H719V375.949H672V377.092Z" fill="#EBEAFE"/>
<path d="M720 322.185H768V377.092H720V322.185Z" fill="#EBEAFE"/>
<path fill-rule="evenodd" clip-rule="evenodd" d="M720 377.092H768V322.185H767V375.949H720V377.092Z" fill="#EBEAFE"/>
<path fill-rule="evenodd" clip-rule="evenodd" d="M768 377.092H816V322.185H815V375.949H768V377.092Z" fill="#2A1ADB" fill-opacity="0.1"/>
<path fill-rule="evenodd" clip-rule="evenodd" d="M816 377.092H864V322.185H863V375.949H816V377.092Z" fill="#2A1ADB" fill-opacity="0.1"/>
<path fill-rule="evenodd" clip-rule="evenodd" d="M864 377.092H912V322.185H911V375.949H864V377.092Z" fill="#2A1ADB" fill-opacity="0.1"/>
<path fill-rule="evenodd" clip-rule="evenodd" d="M912 377.092H960V322.185H959V375.949H912V377.092Z" fill="#2A1ADB" fill-opacity="0.1"/>
<path fill-rule="evenodd" clip-rule="evenodd" d="M960 377.092H1008V322.185H1007V375.949H960V377.092Z" fill="#2A1ADB" fill-opacity="0.1"/>
<path fill-rule="evenodd" clip-rule="evenodd" d="M1008 377.092H1056V322.185H1055V375.949H1008V377.092Z" fill="#2A1ADB" fill-opacity="0.1"/>
<path fill-rule="evenodd" clip-rule="evenodd" d="M1056 377.092H1104V322.185H1103V375.949H1056V377.092Z" fill="#2A1ADB" fill-opacity="0.1"/>
<path fill-rule="evenodd" clip-rule="evenodd" d="M1104 377.092H1152V322.185H1151V375.949H1104V377.092Z" fill="#2A1ADB" fill-opacity="0.1"/>
<path d="M1152 322.185H1200V377.092H1152V322.185Z" fill="#EBEAFE"/>
<path fill-rule="evenodd" clip-rule="evenodd" d="M1152 377.092H1200V322.185H1199V375.949H1152V377.092Z" fill="#EBEAFE"/>
<path fill-rule="evenodd" clip-rule="evenodd" d="M1200 377.092H1248V322.185H1247V375.949H1200V377.092Z" fill="#2A1ADB" fill-opacity="0.1"/>
<path fill-rule="evenodd" clip-rule="evenodd" d="M1248 377.092H1296V322.185H1295V375.949H1248V377.092Z" fill="#2A1ADB" fill-opacity="0.1"/>
<path fill-rule="evenodd" clip-rule="evenodd" d="M1296 377.092H1344V322.185H1343V375.949H1296V377.092Z" fill="#2A1ADB" fill-opacity="0.1"/>
<path fill-rule="evenodd" clip-rule="evenodd" d="M1344 377.092H1392V322.185H1391V375.949H1344V377.092Z" fill="#2A1ADB" fill-opacity="0.1"/>
<path fill-rule="evenodd" clip-rule="evenodd" d="M1392 377.092H1440V322.185H1439V375.949H1392V377.092Z" fill="#2A1ADB" fill-opacity="0.1"/>
<path fill-rule="evenodd" clip-rule="evenodd" d="M0 432H48V377.092H47V430.856H0V432Z" fill="#2A1ADB" fill-opacity="0.1"/>
<path fill-rule="evenodd" clip-rule="evenodd" d="M48 432H96V377.092H95V430.856H48V432Z" fill="#2A1ADB" fill-opacity="0.1"/>
<path fill-rule="evenodd" clip-rule="evenodd" d="M96 432H144V377.092H143V430.856H96V432Z" fill="#2A1ADB" fill-opacity="0.1"/>
<path fill-rule="evenodd" clip-rule="evenodd" d="M144 432H192V377.092H191V430.856H144V432Z" fill="#2A1ADB" fill-opacity="0.1"/>
<path fill-rule="evenodd" clip-rule="evenodd" d="M192 432H240V377.092H239V430.856H192V432Z" fill="#2A1ADB" fill-opacity="0.1"/>
<path fill-rule="evenodd" clip-rule="evenodd" d="M240 432H288V377.092H287V430.856H240V432Z" fill="#2A1ADB" fill-opacity="0.1"/>
<path fill-rule="evenodd" clip-rule="evenodd" d="M288 432H336V377.092H335V430.856H288V432Z" fill="#2A1ADB" fill-opacity="0.1"/>
<path fill-rule="evenodd" clip-rule="evenodd" d="M336 432H384V377.092H383V430.856H336V432Z" fill="#2A1ADB" fill-opacity="0.1"/>
<path fill-rule="evenodd" clip-rule="evenodd" d="M384 432H432V377.092H431V430.856H384V432Z" fill="#2A1ADB" fill-opacity="0.1"/>
<path fill-rule="evenodd" clip-rule="evenodd" d="M432 432H480V377.092H479V430.856H432V432Z" fill="#2A1ADB" fill-opacity="0.1"/>
<path fill-rule="evenodd" clip-rule="evenodd" d="M480 432H528V377.092H527V430.856H480V432Z" fill="#2A1ADB" fill-opacity="0.1"/>
<path fill-rule="evenodd" clip-rule="evenodd" d="M528 432H576V377.092H575V430.856H528V432Z" fill="#2A1ADB" fill-opacity="0.1"/>
<path fill-rule="evenodd" clip-rule="evenodd" d="M576 432H624V377.092H623V430.856H576V432Z" fill="#2A1ADB" fill-opacity="0.1"/>
<path fill-rule="evenodd" clip-rule="evenodd" d="M624 432H672V377.092H671V430.856H624V432Z" fill="#2A1ADB" fill-opacity="0.1"/>
<path fill-rule="evenodd" clip-rule="evenodd" d="M672 432H720V377.092H719V430.856H672V432Z" fill="#2A1ADB" fill-opacity="0.1"/>
<path fill-rule="evenodd" clip-rule="evenodd" d="M720 432H768V377.092H767V430.856H720V432Z" fill="#2A1ADB" fill-opacity="0.1"/>
<path fill-rule="evenodd" clip-rule="evenodd" d="M768 432H816V377.092H815V430.856H768V432Z" fill="#2A1ADB" fill-opacity="0.1"/>
<path fill-rule="evenodd" clip-rule="evenodd" d="M816 432H864V377.092H863V430.856H816V432Z" fill="#2A1ADB" fill-opacity="0.1"/>
<path fill-rule="evenodd" clip-rule="evenodd" d="M864 432H912V377.092H911V430.856H864V432Z" fill="#2A1ADB" fill-opacity="0.1"/>
<path fill-rule="evenodd" clip-rule="evenodd" d="M912 432H960V377.092H959V430.856H912V432Z" fill="#2A1ADB" fill-opacity="0.1"/>
<path fill-rule="evenodd" clip-rule="evenodd" d="M960 432H1008V377.092H1007V430.856H960V432Z" fill="#2A1ADB" fill-opacity="0.1"/>
<path fill-rule="evenodd" clip-rule="evenodd" d="M1008 432H1056V377.092H1055V430.856H1008V432Z" fill="#2A1ADB" fill-opacity="0.1"/>
<path fill-rule="evenodd" clip-rule="evenodd" d="M1056 432H1104V377.092H1103V430.856H1056V432Z" fill="#2A1ADB" fill-opacity="0.1"/>
<path fill-rule="evenodd" clip-rule="evenodd" d="M1104 432H1152V377.092H1151V430.856H1104V432Z" fill="#2A1ADB" fill-opacity="0.1"/>
<path fill-rule="evenodd" clip-rule="evenodd" d="M1152 432H1200V377.092H1199V430.856H1152V432Z" fill="#2A1ADB" fill-opacity="0.1"/>
<path fill-rule="evenodd" clip-rule="evenodd" d="M1200 432H1248V377.092H1247V430.856H1200V432Z" fill="#2A1ADB" fill-opacity="0.1"/>
<path fill-rule="evenodd" clip-rule="evenodd" d="M1248 432H1296V377.092H1295V430.856H1248V432Z" fill="#2A1ADB" fill-opacity="0.1"/>
<path fill-rule="evenodd" clip-rule="evenodd" d="M1296 432H1344V377.092H1343V430.856H1296V432Z" fill="#2A1ADB" fill-opacity="0.1"/>
<path fill-rule="evenodd" clip-rule="evenodd" d="M1344 432H1392V377.092H1391V430.856H1344V432Z" fill="#2A1ADB" fill-opacity="0.1"/>
<path fill-rule="evenodd" clip-rule="evenodd" d="M1392 432H1440V377.092H1439V430.856H1392V432Z" fill="#2A1ADB" fill-opacity="0.1"/>
</g>
<defs>
<clipPath id="clip0_1_6229">
<rect width="390" height="432" fill="white"/>
</clipPath>
</defs>
</svg>
