<svg width="24" height="24" viewBox="0 0 24 24" fill="none" xmlns="http://www.w3.org/2000/svg">
<path d="M19.075 9.86142C18.1992 8.98573 17.091 8.37924 15.8813 8.1137C15.628 6.97217 15.0727 5.91966 14.2733 5.06626C13.474 4.21286 12.46 3.58992 11.3375 3.2626C10.2149 2.93528 9.02504 2.91559 7.89229 3.20561C6.75953 3.49563 5.72552 4.08469 4.89838 4.91119C4.07125 5.73768 3.48139 6.77125 3.1905 7.90378C2.89961 9.03631 2.91838 10.2262 3.24484 11.349C3.57129 12.4718 4.19345 13.4862 5.04623 14.2862C5.89902 15.0862 6.9511 15.6424 8.09243 15.8966C8.31249 16.8854 8.75971 17.8094 9.39869 18.5955C10.0377 19.3815 10.8509 20.008 11.7739 20.4254C12.6969 20.8428 13.7044 21.0396 14.7167 21.0002C15.7289 20.9608 16.7181 20.6863 17.6059 20.1984C18.4937 19.7106 19.2557 19.0227 19.8317 18.1894C20.4076 17.356 20.7817 16.4001 20.9242 15.3971C21.0668 14.3942 20.9739 13.3719 20.6529 12.411C20.3319 11.4502 19.7917 10.5773 19.075 9.86142ZM4.48643 9.52799C4.48612 8.36434 4.88928 7.23659 5.62724 6.33688C6.36519 5.43716 7.39228 4.82116 8.5335 4.59382C9.67472 4.36648 10.8595 4.54187 11.8859 5.09011C12.9123 5.63836 13.7168 6.52552 14.1624 7.60046C14.6081 8.67539 14.6672 9.87158 14.3297 10.9852C13.9923 12.0989 13.2791 13.061 12.3118 13.7078C11.3444 14.3546 10.1828 14.646 9.0247 14.5323C7.86662 14.4186 6.7838 13.9068 5.96072 13.0843C5.49205 12.6184 5.12043 12.0642 4.86737 11.4538C4.6143 10.8434 4.48483 10.1888 4.48643 9.52799ZM18.0147 18.0351C17.0705 18.9771 15.7913 19.5061 14.4576 19.5061C13.1239 19.5061 11.8446 18.9771 10.9004 18.0351C10.3437 17.4784 9.92716 16.7974 9.685 16.0483C10.3933 16.0305 11.0939 15.8974 11.7593 15.654H12.139C12.4253 17.2088 13.2704 18.0077 14.6804 18.0077C16.1436 18.0077 17.3341 17.0391 17.3341 15.8503C17.328 15.6804 17.2562 15.5195 17.1338 15.4014C17.0114 15.2834 16.848 15.2174 16.678 15.2174C16.508 15.2174 16.3446 15.2834 16.2222 15.4014C16.0998 15.5195 16.028 15.6804 16.0219 15.8503C16.0219 16.1957 15.5436 16.6954 14.6804 16.6954C14.3213 16.6954 13.729 16.692 13.4659 15.6548H15.079C15.2282 15.6548 15.3714 15.5956 15.4769 15.49C15.5824 15.3845 15.6417 15.2414 15.6417 15.0921C15.6417 14.9429 15.5824 14.7998 15.4769 14.6942C15.3714 14.5887 15.2282 14.5294 15.079 14.5294H13.7076C13.8464 14.4137 13.9819 14.292 14.1113 14.1634H15.079C15.2281 14.1634 15.3712 14.1042 15.4766 13.9987C15.5821 13.8933 15.6413 13.7503 15.6413 13.6011C15.6413 13.452 15.5821 13.309 15.4766 13.2035C15.3712 13.0981 15.2281 13.0388 15.079 13.0388H15.0164C15.1896 12.7654 15.3421 12.48 15.4724 12.1843C15.6142 12.2374 15.7395 12.3271 15.8355 12.4442C15.9316 12.5613 15.9949 12.7017 16.0193 12.8511C16.0254 13.021 16.0973 13.182 16.2196 13.3C16.342 13.418 16.5054 13.484 16.6754 13.484C16.8455 13.484 17.0089 13.418 17.1312 13.3C17.2536 13.182 17.3254 13.021 17.3316 12.8511C17.3067 12.4249 17.1556 12.0157 16.8975 11.6757C16.6394 11.3356 16.286 11.08 15.8821 10.9414C15.9714 10.5357 16.0219 10.1224 16.033 9.70713C16.7802 9.9498 17.4593 10.366 18.0147 10.9217C18.9566 11.8657 19.4856 13.1449 19.4856 14.4784C19.4856 15.812 18.9566 17.0911 18.0147 18.0351Z" fill="#6F64E8"/>
<path d="M12.2101 10.8386C12.2101 9.87603 11.4404 9.10717 10.2155 8.83374L9.35154 8.61946C8.46012 8.42146 8.46012 8.24232 8.46012 8.10003C8.46012 7.80946 8.92297 7.40574 9.67726 7.40574C10.0587 7.38689 10.4333 7.51717 10.7213 7.76832C10.8203 7.85648 10.8819 7.97911 10.8935 8.11117C10.8933 8.19739 10.9101 8.2828 10.943 8.3625C10.9758 8.44221 11.0241 8.51464 11.085 8.57564C11.146 8.63664 11.2183 8.68501 11.298 8.71798C11.3777 8.75095 11.463 8.76786 11.5493 8.76774C11.7232 8.76774 11.8901 8.69869 12.0132 8.57574C12.1363 8.4528 12.2056 8.28602 12.2058 8.11203C12.2018 7.87389 12.1505 7.63892 12.055 7.42073C11.9595 7.20254 11.8217 7.00545 11.6495 6.84089C11.2594 6.46764 10.7638 6.22345 10.2301 6.14146V5.72403C10.2301 5.57479 10.1708 5.43166 10.0653 5.32613C9.95977 5.2206 9.81664 5.16132 9.6674 5.16132C9.51816 5.16132 9.37503 5.2206 9.2695 5.32613C9.16397 5.43166 9.10469 5.57479 9.10469 5.72403V6.14917C8.6027 6.19669 8.13286 6.41731 7.77569 6.77323C7.41851 7.12915 7.19625 7.59821 7.14697 8.10003C7.14697 9.47317 8.49097 9.77317 9.05069 9.89832L9.91554 10.1117C10.369 10.2129 10.8978 10.4632 10.8978 10.8386C10.8978 11.0812 10.4213 11.5457 9.67554 11.5457C8.95983 11.5457 8.46012 11.1729 8.46012 10.8386C8.46012 10.6645 8.39094 10.4975 8.26781 10.3743C8.14468 10.2512 7.97768 10.182 7.80354 10.182C7.62941 10.182 7.46241 10.2512 7.33928 10.3743C7.21615 10.4975 7.14697 10.6645 7.14697 10.8386C7.18872 11.3466 7.40947 11.8233 7.76988 12.1837C8.1303 12.5441 8.60698 12.7649 9.11497 12.8066V13.224C9.11497 13.3732 9.17421 13.5162 9.27966 13.6216C9.38511 13.7271 9.52813 13.7863 9.67726 13.7863C9.82639 13.7863 9.96941 13.7271 10.0749 13.6216C10.1803 13.5162 10.2395 13.3732 10.2395 13.224V12.8006C10.7427 12.7475 11.2125 12.5238 11.571 12.1667C11.9295 11.8096 12.155 11.3407 12.2101 10.8377V10.8386Z" fill="#6F64E8"/>
</svg>
